<?xml version="1.0" encoding="utf-8"?>
<!-- Generator: Adobe Illustrator 16.0.4, SVG Export Plug-In . SVG Version: 6.00 Build 0)  -->
<!DOCTYPE svg PUBLIC "-//W3C//DTD SVG 1.1//EN" "http://www.w3.org/Graphics/SVG/1.1/DTD/svg11.dtd">
<svg version="1.1" id="Layer_1" xmlns="http://www.w3.org/2000/svg" xmlns:xlink="http://www.w3.org/1999/xlink" x="0px" y="0px"
	 width="2800px" height="2800px" viewBox="0 0 2800 2800" enable-background="new 0 0 2800 2800" xml:space="preserve">
<g>
	<g>
		<polygon fill="#333333" points="2442.8,1360 1625.1,1360 1728.1,1158.7 1625.1,970.2 2442.8,970.2 2347.8,1163.5 		"/>
		<g>
			<path fill="#FFFFFF" d="M1875,1170.5c6.3,6.8,9.5,15.3,9.5,25.5l-9.3,117c0,5.6-5.2,9.3-15.6,11.1c-10.4,1.9-19.9,2.8-28.6,2.8
				h-63.2V997.3h61.8c10.8,0,21.1,2.6,30.9,7.9c9.8,5.3,14.6,12.2,14.6,20.9v93.3l-19,38.5C1862.3,1159.6,1868.6,1163.7,1875,1170.5
				z M1802.8,1142.7h33.4c0.9,0,2-0.6,3.3-1.9c0.3-0.3,0.6-1.1,0.9-2.3l4.2-111c0-1.2-2.2-1.9-6.5-1.9l-40.9,1.9V1139
				C1797.2,1141.4,1799,1142.7,1802.8,1142.7z M1845.9,1275.9c0-1.9-0.3-2.8-0.9-2.8V1178c0.9-0.6,1.4-1.1,1.4-1.4
				c0-0.9-1.1-1.4-3.3-1.4l-35.3-4.6c-0.9,0-1.9,0.3-3,0.9c-1.1,0.6-1.8,1.2-2.1,1.9v126.3l5.1,1.4
				C1833.2,1291.7,1845.9,1283.4,1845.9,1275.9z"/>
			<path fill="#FFFFFF" d="M2028.4,1327h-99.4V997.3h99.4v28.8l-58-2.8v105.4l58,10.7v22.3l-65.9-2.8v133.3l65.9-3.7V1327z"/>
			<path fill="#FFFFFF" d="M2150.5,1062.8l-9.3-36.2l-27.9,3.3l-7,103.1l67.3,12.1l-6.5,154.2c0,6.2-4,12.4-12.1,18.6
				c-8.1,6.2-15.5,9.3-22.3,9.3h-54.3l-4.2-79.4h27.4l-0.5,40.4l32.5,7.4l7.4-123.5l-62.7-13.9v-149.5l18.6-11.1h72.9l-2.3,65.5
				H2150.5z"/>
			<path fill="#FFFFFF" d="M2304.7,1003.8l2.3,29.3h-40.9V1327h-39.5l9.3-285.6l-33.4-11.1l6-33L2304.7,1003.8z"/>
		</g>
	</g>
	<g>
		<polygon fill="#333333" points="1660.5,2001.3 167.9,2001.3 356,1714.2 167.9,1445.3 1660.5,1445.3 1487.1,1721 		"/>
		<g>
			<path fill="#FFFFFF" d="M462.7,1802.5c0,16.1,0.8,29.1,2.6,39c1.7,9.9,3.9,17.6,6.7,23c2.8,5.4,6,9.1,9.5,10.9
				c3.6,1.9,7.2,2.8,10.9,2.8c4.3,0,8-0.5,10.9-1.4c2.9-0.9,5.6-2.2,8.1-3.7l4.6,4.2c-3.4,8-8,14-13.7,17.9
				c-5.7,3.9-12.2,5.8-19.3,5.8c-9,0-16.5-1.9-22.5-5.6c-6-3.7-9.1-8.7-9.1-14.9c-12.7,0-21-5.4-24.8-16.3
				c-3.9-10.8-5.8-26.8-5.8-47.8v-154.2h-30.6v-21.8h2.8c8.4,0,15.6-1.9,21.6-5.8c6-3.9,11.3-8.9,15.8-15.1
				c4.5-6.2,8.4-13.2,11.6-21.1c3.3-7.9,6.3-15.9,9.1-23.9h11.6v65.9c11.1-0.3,20.4-1.2,27.6-2.6c7.3-1.4,12.6-3.8,16-7.2
				c7.1,1.2,11.8,3.8,13.9,7.7c2.2,3.9,3.3,7.2,3.3,10c0,3.7-1.2,6.9-3.5,9.5c-2.3,2.6-5.4,4.7-9.3,6.3c-3.9,1.6-8.3,2.6-13.2,3.3
				c-5,0.6-9.9,0.9-14.9,0.9c-6.8,0-13.5-0.5-20-1.4V1802.5z"/>
			<path fill="#FFFFFF" d="M607.6,1807.1c0,6.2,1,11.3,3,15.3c2,4,4.5,7.3,7.4,9.8c2.9,2.5,6.3,4.3,10.2,5.3
				c3.9,1.1,7.7,1.6,11.4,1.6v13.9c-3.7,0-7.8-0.2-12.3-0.7c-4.5-0.5-9.2-1-14.2-1.6c-5-0.6-9.7-1.2-14.2-1.6
				c-4.5-0.5-8.6-0.7-12.3-0.7c-3.7,0-7.8,0.2-12.3,0.7c-4.5,0.5-9.2,1-14.2,1.6c-5,0.6-9.7,1.2-14.2,1.6c-4.5,0.5-8.6,0.7-12.3,0.7
				v-13.9c8.4,0,15.8-2.3,22.3-7c6.5-4.6,9.8-13,9.8-25.1v-240.5c0-11.4-0.2-21-0.7-28.6c-0.5-7.6-1.8-13.5-3.9-17.6
				c-2.2-4.2-5.3-7.1-9.3-8.8c-4-1.7-9.6-2.6-16.7-2.6v-11.6c7.7,0,14.5-0.5,20.2-1.4c5.7-0.9,10.9-2.3,15.6-4.2
				c4.6-1.9,8.9-4,12.8-6.5c3.9-2.5,8-5.1,12.3-7.9h11.6v195.5c3.1-4.9,6.8-9.7,11.1-14.2c4.3-4.5,9.4-8.4,15.3-11.8
				c5.9-3.4,12.7-6.1,20.4-8.1c7.7-2,16.7-3,26.9-3c13,0,24.6,2,34.8,6c10.2,4,18.8,10.4,25.8,19.3c7,8.8,12.2,20.3,15.8,34.4
				c3.6,14.1,5.3,31.2,5.3,51.3v55.3c0,19.8,0.7,35.8,2.1,47.8c1.4,12.1,3.3,21.4,5.6,27.9c2.3,6.5,5.1,10.8,8.4,13
				c3.3,2.2,6.6,3.3,10,3.3c3.4,0,6.5-0.2,9.3-0.7c2.8-0.5,5.9-1.9,9.3-4.4l2.3,1.9c-3.4,8.4-8.5,15.1-15.3,20.2
				c-6.8,5.1-14.2,7.7-22.3,7.7c-8.1,0-15.2-2.5-21.4-7.4c-6.2-5-9.3-11.6-9.3-20c-4-2.2-7.4-4.4-10-6.7c-2.6-2.3-4.7-5.7-6.3-10
				c-1.6-4.3-2.6-10.1-3.3-17.4c-0.6-7.3-0.9-16.9-0.9-29v-71c0-19.5-1.1-35.6-3.2-48.3c-2.2-12.7-5.3-22.8-9.3-30.4
				c-4-7.6-8.9-12.9-14.6-16c-5.7-3.1-12-4.6-18.8-4.6c-7.1,0-14.7,1.5-22.8,4.4c-8.1,2.9-15.4,7.7-22.1,14.4
				c-6.7,6.7-12.2,15.3-16.5,26c-4.3,10.7-6.5,23.6-6.5,38.8V1807.1z"/>
			<path fill="#FFFFFF" d="M883.4,1807.1c0,6.2,1,11.3,3,15.3c2,4,4.5,7.3,7.4,9.8c2.9,2.5,6.3,4.3,10.2,5.3
				c3.9,1.1,7.7,1.6,11.4,1.6v13.9c-3.7,0-7.8-0.2-12.3-0.7c-4.5-0.5-9.2-1-14.2-1.6c-5-0.6-9.7-1.2-14.2-1.6
				c-4.5-0.5-8.6-0.7-12.3-0.7s-7.8,0.2-12.3,0.7c-4.5,0.5-9.2,1-14.2,1.6c-5,0.6-9.7,1.2-14.2,1.6c-4.5,0.5-8.6,0.7-12.3,0.7v-13.9
				c8.4,0,15.8-2.3,22.3-7c6.5-4.6,9.8-13,9.8-25.1v-79.9c0-11.4-0.2-21-0.7-28.6c-0.5-7.6-1.8-13.5-3.9-17.6
				c-2.2-4.2-5.3-7.1-9.3-8.8c-4-1.7-9.6-2.6-16.7-2.6v-13.9c7.7,0,14.3-0.5,19.7-1.4c5.4-0.9,10.3-2.3,14.6-4.2
				c4.3-1.9,8.4-4,12.1-6.5c3.7-2.5,7.7-5.1,12.1-7.9h13.9V1807.1z M830.9,1567.1c0-9.3,3.3-17.1,9.8-23.5
				c6.5-6.3,14.2-9.5,23.2-9.5c9,0,16.6,3.2,23,9.5c6.3,6.3,9.5,14.2,9.5,23.5c0,9.3-3.2,17.1-9.5,23.4c-6.3,6.3-14,9.5-23,9.5
				c-9,0-16.7-3.2-23.2-9.5C834.2,1584.2,830.9,1576.4,830.9,1567.1z"/>
			<path fill="#FFFFFF" d="M1123.9,1766.3c0-20.7-1-38.1-3-52c-2-13.9-5-25.1-9.1-33.4c-4-8.4-9.1-14.3-15.3-17.9
				c-6.2-3.6-13.3-5.3-21.4-5.3c-8.1,0-15.7,1.6-23,4.6c-7.3,3.1-13.7,8-19.3,14.6c-5.6,6.7-10,15.3-13.2,26
				c-3.3,10.7-4.9,23.4-4.9,38.3v65.9c0,6.2,1,11.3,3,15.3c2,4,4.5,7.3,7.4,9.8c2.9,2.5,6.3,4.3,10.2,5.3c3.9,1.1,7.7,1.6,11.4,1.6
				v13.9c-3.7,0-7.8-0.2-12.3-0.7c-4.5-0.5-9.2-1-14.2-1.6c-5-0.6-9.7-1.2-14.2-1.6c-4.5-0.5-8.6-0.7-12.3-0.7s-7.8,0.2-12.3,0.7
				c-4.5,0.5-9.2,1-14.2,1.6c-5,0.6-9.7,1.2-14.2,1.6c-4.5,0.5-8.6,0.7-12.3,0.7v-13.9c8.4,0,15.8-2.3,22.3-7s9.8-13,9.8-25.1v-77.5
				c0-11.4-0.2-21-0.7-28.6c-0.5-7.6-1.8-13.5-3.9-17.6c-2.2-4.2-5.3-7.1-9.3-8.8c-4-1.7-9.6-2.6-16.7-2.6v-11.6
				c7.7,0,14.5-0.5,20.2-1.4c5.7-0.9,10.9-2.3,15.6-4.2c4.6-1.9,8.9-4,12.8-6.5c3.9-2.5,8-5.1,12.3-7.9h11.6v32.5
				c5.9-10.8,14-19.7,24.4-26.7c10.4-7,22.7-10.4,36.9-10.4c30.6,0,53.2,9.3,67.8,27.9c14.5,18.6,21.8,49.4,21.8,92.4v48.8
				c0,6.2,1,11.3,3,15.3c2,4,4.5,7.3,7.4,9.8c2.9,2.5,6.3,4.3,10.2,5.3c3.9,1.1,7.7,1.6,11.4,1.6v16.3c-4,0-7.6-0.2-10.7-0.7
				c-3.1-0.5-6.3-0.9-9.5-1.4c-3.3-0.5-7-0.9-11.1-1.4c-4.2-0.5-9.2-0.7-15.1-0.7c-4,0-8.6,0.2-13.7,0.7c-5.1,0.5-11.2,1.6-18.3,3.5
				l-4.2-7.9c2.2-2.2,3.9-6.1,5.1-11.8c1.2-5.7,2.1-12.3,2.6-19.7c0.5-7.4,0.8-15.3,0.9-23.7
				C1123.8,1781.6,1123.9,1773.7,1123.9,1766.3z"/>
			<path fill="#FFFFFF" d="M1326.4,1859.6c-16.7,0-31.4-2.8-44.1-8.4c-12.7-5.6-23.4-13.4-32-23.4c-8.7-10.1-15.2-22.1-19.5-36
				c-4.3-13.9-6.5-29.3-6.5-46c0-19.5,3-36.1,9.1-49.9c6-13.8,13.9-25.1,23.7-34.1c9.8-9,20.9-15.6,33.4-19.7
				c12.5-4.2,25.3-6.3,38.3-6.3c13.9,0,26.3,2.1,37.1,6.3c10.8,4.2,20.9,12.6,30.2,25.3c1.9-6.8,4.8-12,8.8-15.6
				c4-3.6,8.7-6.2,13.9-7.9c5.3-1.7,10.8-2.7,16.7-3c5.9-0.3,11.6-0.5,17.2-0.5v13.9c-4,0-7.4,0.9-10,2.6c-2.6,1.7-4.6,6.2-6,13.5
				c-1.4,7.3-2.3,18.1-2.8,32.5c-0.5,14.4-0.7,34.3-0.7,59.7v105.9c0,35.3-8.8,60.9-26.2,76.8c-17.5,15.9-45,23.9-82.4,23.9
				c-22.9,0-39.9-2.5-50.8-7.4c-11-5-16.5-11.1-16.5-18.6c-8.1,0-13.8-2.7-17.2-8.1c-3.4-5.4-5.1-10.9-5.1-16.5
				c0-5.3,1.2-9.8,3.7-13.7c2.5-3.9,5.6-7,9.3-9.5c3.7-2.5,7.7-4.3,11.8-5.6c4.2-1.2,8-1.9,11.4-1.9c0,8.4,1,16.2,3,23.4
				c2,7.3,5.3,13.6,10,19c4.6,5.4,10.6,9.8,17.9,13c7.3,3.3,16.2,4.9,26.7,4.9c9.3,0,17.8-1.4,25.5-4.2c7.7-2.8,14.3-7.4,19.7-13.9
				c5.4-6.5,9.7-15,12.8-25.5c3.1-10.5,4.6-23.5,4.6-39v-30.2c-10.5,10.2-21.4,16.8-32.5,19.7
				C1347.7,1858.1,1336.9,1859.6,1326.4,1859.6z M1333.3,1838.3c10.5,0,19.8-2.4,27.9-7.2c8-4.8,14.6-11.4,19.7-19.7
				c5.1-8.4,9-18,11.6-29c2.6-11,3.9-22.8,3.9-35.5c0-12.1-1.2-23.4-3.7-34.1c-2.5-10.7-6.3-20.1-11.6-28.3
				c-5.3-8.2-11.8-14.6-19.7-19.3c-7.9-4.6-17.4-7-28.6-7c-12.1,0-22.3,2.2-30.6,6.7c-8.4,4.5-15,10.7-20,18.6
				c-5,7.9-8.5,17.2-10.7,27.9c-2.2,10.7-3.3,22.2-3.3,34.6c0,12.1,1,23.7,3,34.8c2,11.1,5.6,21,10.7,29.5
				c5.1,8.5,11.8,15.3,20,20.4C1310.2,1835.7,1320.6,1838.3,1333.3,1838.3z"/>
		</g>
	</g>
	<g>
		<rect x="1813.5" y="1662.1" fill="#CFD3D2" width="656.6" height="174.5"/>
		<g>
			<path fill="#333333" d="M2034.1,1630.7c0-6.5,1.7-17.6,5.1-33.4c3.4-15.8,8-30.8,13.9-45c6.2-15.8,12.5-23.7,19-23.7
				c5.6,0,8.4,3.4,8.4,10.2c0,13-2.2,27.5-6.7,43.4c-4.5,15.9-10.1,29.5-16.9,40.6c-7.1,10.8-13.5,16.3-19,16.3
				C2035.3,1638.4,2034.1,1635.7,2034.1,1630.7z"/>
			<path fill="#333333" d="M2542.5,1744c-11.7-13.9-25.5-25.6-38.3-38.3c-5.5-5.4-14,3-8.5,8.5c9.6,9.5,19.7,18.4,29,28.1h-179.6
				c-0.1-8.6-0.4-15.7-0.8-21h11.6c3.1,0.6,7.4,0.9,13,0.9c4.3,0,7.9-1.2,10.7-3.5s4.2-5.2,4.2-8.6c0-8.7-7.4-13-22.3-13
				c-3.7,0-6.8,0.2-9.3,0.5l-7.4,0.5l-1.4-7.4c0-7.4,0.5-18.6,1.4-33.4c0.3-9.9,0.5-21,0.5-33.4c0-8.7-0.2-15.3-0.5-20
				c10.5,1.6,22.3,4.6,35.3,9.3c3.7-1.5,6.9-3.6,9.5-6.3c2.6-2.6,3.9-5.5,3.9-8.6c0-5.6-6.7-10.4-20.2-14.4c-13.5-4-25.3-6-35.5-6
				c-13,0-19.5,11-19.5,33c0,4,0.5,10.5,1.4,19.5c0.9,8.7,1.4,15.2,1.4,19.5c0,18.3-0.6,40.9-1.9,67.8c-0.3,8.9-0.5,17.1-0.7,24.7
				H2240c0.3-3.6,0.5-7.2,0.8-10.8c1.2-16.7,2.6-28.9,3.9-36.7c1.4-7.7,4.3-19.3,8.6-34.8c5.3-17.9,9.2-33.4,11.8-46.2
				c2.6-12.8,3.9-24.8,3.9-36c0-2.8-1.1-5.2-3.2-7.2c-2.2-2-4.6-3-7.4-3h-10.2c-3.4,20.1-9.3,57.7-17.6,112.8
				c-3.6,22.5-6.9,43.1-10,61.9h-26.9c-5.2-35.6-9.6-62.2-13.2-79.5c-4-18.6-7.7-34.1-11.1-46.7c-3.4-12.5-7.1-22.5-11.1-29.9
				c-4-7.7-8.4-11.6-13-11.6c-2.8,0-5.3,1.1-7.7,3.3c-2.3,2.2-3.5,4.6-3.5,7.4c0,4.6,2.8,15.6,8.4,33c2.2,6.5,3.6,11.3,4.2,14.4
				c10.7,41.4,19.2,77.9,25.7,109.7h-233.7c-0.7-12.5-1.4-25.9-2.3-40.1c-4-57.6-6-102.8-6-135.6c0-3.7,0.7-6.3,2.1-7.7
				c1.4-1.4,3.6-2.1,6.7-2.1h3.7c1.2,0.3,2.8,0.5,4.6,0.5c3.1,0,5.6-1.2,7.7-3.7c2-2.5,3-5.4,3-8.8c0-3.4-1.3-6.3-3.9-8.8
				c-2.6-2.5-5.8-3.7-9.5-3.7c-9,0-20,1.1-33,3.2c-7.1,1.2-12.9,3.2-17.4,6c-4.5,2.8-6.7,6-6.7,9.8c0,7.4,3.6,11.1,10.7,11.1
				c3.7,0,7.3-0.6,10.7-1.9c0.9,6.8,1.4,15.3,1.4,25.5l-0.5,23.7c-0.3,7.1-0.5,15-0.5,23.7c0,24.1,1.4,59.9,4.2,107.3
				c0,0.5,0.1,1,0.1,1.5h-99.8c-1.9-5.7-4.5-11.6-7.4-16.5c-1.7-2.9-4.4-5.2-7.3-6.8c1.7-4.6-5.2-10.1-10.3-6.1
				c-4.9,3.8-7.5,10.6-0.7,14.2c2.5,1.4,5.1,1.9,7.3,3.9c2.7,2.5,3.9,7.8,5.4,11.3h-9.8c-7.1-7.8-12.6-17-20-24.6
				c-5.4-5.6-13.8,2.9-8.5,8.5c4.8,5,8.8,10.6,13,16.1h-13.6c-7.7,0-7.7,12,0,12h13.7c-5.7,6.4-11.6,12.7-16.5,19.7
				c-4.4,6.4,6,12.4,10.3,6c6.4-9.2,14.5-17.1,21.6-25.8h13.4c0,1.1-0.1,2.1-0.3,3.2c-2.1,8.4-10,16.1-15.3,22.5
				c-4.9,5.9,3.5,14.4,8.5,8.5c8.2-9.9,18.8-21,19-34.2h98.2c2.5,39.2,3.8,70.6,3.8,94.2c0,4-0.5,6.8-1.6,8.4
				c-1.1,1.6-2.9,2.3-5.3,2.3c-1.6,0-2.9-0.2-4.2-0.5h-5.6c-9.3,0-13.9,3.7-13.9,11.1c0,9.3,13.3,13.9,39.9,13.9
				c2.5,0,9-0.3,19.5-0.9c4.6,0,7.7-0.1,9.3-0.2c1.5-0.2,2.5-0.2,2.8-0.2l11.6-7.9v-2.8c0-10.8-6.5-16.3-19.5-16.3
				c-4,0-7.1,0.2-9.3,0.5v-17.6c0-20.9-0.9-48.9-2.6-84h235.4c1.2,6.2,2.3,12.3,3.3,18.1c6.7,38.1,10,74.9,10,110.5l8.8,7
				c7.1,0,13.5-5.1,19-15.3c5.6-10.2,10.1-24.3,13.5-42.3c4.2-23.6,7.5-49.6,9.9-78h79.2c-0.3,12.5-0.4,22.9-0.4,31.1l0.9,29.7
				c0.9,13.3,1.4,23.2,1.4,29.7c0,3.7,0.2,7,0.5,9.8v21.4c0.3,4,2.1,7.4,5.3,10.2c3.2,2.8,6.9,4.2,10.9,4.2h39.5
				c5.6,0,10.3-1.2,14.2-3.5c3.9-2.3,5.8-5.6,5.8-10c0-7.4-5.9-11.1-17.6-11.1c-7.4,0-13.8,0.2-19,0.5l-15.3,0.5
				c-0.6,0-0.9-8.7-0.9-26c0-9.3,0.5-23.4,1.4-42.3c0.3-12.4,0.5-26.3,0.5-41.8c0-0.8,0-1.5,0-2.3h181.5
				c-6.3,9.5-11.7,19.5-17.6,29.3c-4,6.7,6.4,12.7,10.3,6c7.4-12.5,14-25.6,23-37.1C2544.6,1749.7,2544.8,1746.7,2542.5,1744z
				 M2205.4,1828c-0.9-5-2-13.2-3.3-24.6l-5.6-41.3l-1.2-7.9h23.1C2213.5,1783.9,2209.2,1808.5,2205.4,1828z"/>
		</g>
	</g>
	<g>
		<g>
			<g>
				<path fill="#F39DA3" d="M1303.8,2143.3c23.4,7.7,42.4,21.8,57,42.4c11.6,16.6,19.6,34.6,23.8,54c4.2,19.4,6.4,37.8,6.4,55.3
					c0,44.4-8.9,82.1-26.8,112.9c-24.2,41.6-61.6,62.3-112.1,62.3h-144.1V2136H1252C1272.8,2136.3,1290,2138.7,1303.8,2143.3z
					 M1175.7,2194v218.1h64.5c33,0,56-16.2,69-48.7c7.1-17.8,10.7-39.1,10.7-63.7c0-34-5.3-60.1-16-78.3
					c-10.7-18.2-31.9-27.3-63.7-27.3H1175.7z"/>
				<path fill="#F39DA3" d="M1700.6,2440.5c-25.2,26-61.7,39-109.5,39c-47.8,0-84.3-13-109.5-39c-33.9-31.9-50.8-77.8-50.8-137.9
					c0-61.2,16.9-107.2,50.8-137.9c25.2-26,61.7-39,109.5-39c47.8,0,84.3,13,109.5,39c33.7,30.7,50.6,76.6,50.6,137.9
					C1751.2,2362.7,1734.3,2408.6,1700.6,2440.5z M1657,2389.7c16.2-20.4,24.4-49.4,24.4-87.1c0-37.5-8.1-66.5-24.4-86.9
					c-16.2-20.5-38.2-30.7-65.9-30.7c-27.7,0-49.7,10.2-66.2,30.6c-16.5,20.4-24.7,49.4-24.7,87.1s8.2,66.7,24.7,87.1
					c16.5,20.4,38.5,30.6,66.2,30.6C1618.8,2420.3,1640.7,2410.1,1657,2389.7z"/>
				<path fill="#F39DA3" d="M1803.3,2136h73.2l132.7,233v-233h65.1v334.2h-69.8l-136.1-237.1v237.1h-65.1V2136z"/>
				<path fill="#F39DA3" d="M2386.9,2195.2h-176.8v71h162.3v58h-162.3v85.9h185v60.1h-253.3V2136h245.1V2195.2z"/>
				<path fill="#F39DA3" d="M2465.1,2137.1h71v84.7l-18.4,155.8H2484l-18.8-155.8V2137.1z M2466.7,2404.7h67.8v65.5h-67.8V2404.7z"
					/>
			</g>
		</g>
		<path d="M1200.7,2160.8h-69v227.1h69c34.9,0,59.5-17.4,73.2-51.6c7.3-18.3,11-40.3,11-65.4c0-34.7-5.6-61.8-16.6-80.6
			C1256.8,2170.7,1234,2160.8,1200.7,2160.8z M1265.5,2333c-12.4,30.9-33.6,45.9-64.9,45.9h-60v-209.1h60c29.9,0,50.1,8.4,59.8,25.1
			c10.2,17.4,15.4,43,15.4,76.1C1275.9,2294.9,1272.4,2315.8,1265.5,2333z M1324.9,2154.3c-15-21.3-35-36.1-59.2-44.1
			c-14.1-4.7-32-7.2-53.1-7.5h-148.6v343.2h148.6c52,0,91-21.7,116-64.6c18.2-31.4,27.4-70.1,27.4-115.2c0-17.8-2.2-36.7-6.5-56.3
			C1345.1,2190,1336.8,2171.3,1324.9,2154.3z M1320.7,2376.8c-11.6,20-26.6,35.2-44.5,45.1c-17.9,10-39.4,15-63.7,15h-139.6v-325.2
			h139.5c20.2,0.3,37.1,2.7,50.4,7c22.4,7.4,40.8,21.1,54.7,40.7c11.2,16.1,19,33.7,23.1,52.3c4.1,18.9,6.3,37.2,6.3,54.4
			C1346.9,2309.6,1338.1,2346.8,1320.7,2376.8z M1664.2,2132.8c-26-26.7-63.9-40.3-112.6-40.3c-48.7,0-86.6,13.5-112.6,40.3
			c-34.6,31.4-52.2,78.9-52.2,141.1c0,61,17.5,108.4,52.1,141.1c26,26.7,63.9,40.3,112.7,40.3c48.8,0,86.7-13.6,112.7-40.3
			c34.4-32.6,51.9-80.1,51.9-141.1C1716.1,2211.7,1698.7,2164.2,1664.2,2132.8z M1658,2408.5l-0.1,0.1c-24.2,25-60,37.6-106.3,37.6
			c-46.3,0-82-12.7-106.3-37.6l-0.1-0.1c-32.8-30.9-49.4-76.1-49.4-134.6c0-59.6,16.6-104.9,49.3-134.5l0.2-0.2
			c24.2-25,60-37.6,106.3-37.6c46.3,0,82,12.7,106.3,37.6l0.2,0.2c32.6,29.7,49.1,74.9,49.1,134.5
			C1707.1,2332.3,1690.6,2377.6,1658,2408.5z M1551.6,2151.7c-29,0-52.4,10.9-69.7,32.3c-17.1,21.1-25.7,51.4-25.7,89.9
			c0,38.5,8.7,68.8,25.7,89.9c17.3,21.4,40.7,32.3,69.7,32.3c29,0,52.3-10.9,69.4-32.3c16.8-21.1,25.4-51.4,25.4-89.9
			c0-38.3-8.5-68.5-25.3-89.7C1603.9,2162.6,1580.5,2151.7,1551.6,2151.7z M1613.9,2358.1c-15.5,19.5-35.9,28.9-62.3,28.9
			c-26.5,0-47-9.5-62.7-28.9c-15.7-19.5-23.7-47.8-23.7-84.2s8-64.7,23.7-84.2c15.7-19.5,36.2-28.9,62.7-28.9
			c26.5,0,46.8,9.5,62.3,29c15.5,19.6,23.4,47.9,23.4,84.2C1637.3,2310.3,1629.4,2338.6,1613.9,2358.1z M1965.1,2323.3L1840.9,2105
			l-1.3-2.3h-80.3v343.2h74.1v-224.7l128.9,224.7h76.9v-343.2h-74.1V2323.3z M1974.1,2111.7h56.1v325.2h-62.7l-143.2-249.5v249.5
			h-56.1v-325.2h66.1l139.8,245.5V2111.7z M2175,2299.9h162.3v-67H2175v-62h176.8v-68.2h-254.1v343.2H2360v-69.1h-185V2299.9z
			 M2351,2385.9v51.1h-244.3v-325.2h236.1v50.2H2166v80h162.3v49H2166v94.9H2351z M2421.1,2103.9v89.2l19.3,160.3h41.8l18.8-159.8
			l0-89.7H2421.1z M2492.1,2192.8l-17.9,151.6h-25.8l-18.3-151.6v-79.9h62V2192.8z M2422.7,2445.9h76.8v-74.5h-76.8V2445.9z
			 M2431.7,2380.4h58.8v56.5h-58.8V2380.4z"/>
	</g>
	<g>
		<rect x="239.8" y="1074.9" fill="#E4DAD8" width="656.6" height="174.5"/>
		<g>
			<path fill="#333333" d="M458.5,1312.6c0-7.4,4.8-11.1,14.4-11.1h5.1l4.6,0.5c2.5,0,4.2-0.8,5.1-2.3c0.9-1.5,1.4-4.3,1.4-8.4
				c0-5.3-0.3-13.5-0.9-24.6c-0.9-7.4-2-20.7-3.2-39.9c-2.8-47.4-4.2-83.1-4.2-107.3c0-8.7,0.2-16.6,0.5-23.7l0.5-23.7
				c0-10.2-0.5-18.7-1.4-25.5c-5,1.2-8.5,1.9-10.7,1.9c-7.4,0-11.1-3.7-11.1-11.1c0-3.7,2.3-7,7-9.8c4.6-2.8,10.5-4.8,17.6-6
				c12.4-2.5,23.4-3.7,33-3.7c3.7,0,6.9,1.3,9.5,3.9c2.6,2.6,3.9,5.7,3.9,9.1c0,3.4-1,6.3-3,8.8c-2,2.5-4.6,3.7-7.7,3.7
				c-1.9,0-3.4-0.2-4.6-0.5h-3.7c-3.1,0-5.3,0.7-6.7,2.1c-1.4,1.4-2.1,3.9-2.1,7.7c0,30,1.9,75.2,5.6,135.6
				c0.6,11.1,1.9,27.6,3.7,49.2c1.5,14.2,2.3,28.8,2.3,43.6v17.6c1.9-0.3,4.9-0.5,9.3-0.5c13,0,19.5,5.4,19.5,16.3v2.8l-11.6,7.9
				c-0.3,0-1.3,0.1-3,0.2c-1.7,0.2-4.9,0.2-9.5,0.2c-9.9,0.6-16.3,0.9-19,0.9C472,1326.6,458.5,1321.9,458.5,1312.6z"/>
			<path fill="#333333" d="M574.8,1327.5c-3.9-3.1-6.1-7.1-6.7-12.1l5.1-7.9c1.9,0,4.8,0.6,8.8,1.9c4.6,0.9,8.2,1.4,10.7,1.4
				c5.6,0,10.6-2.5,15.1-7.4c4.5-4.9,7.8-11.4,10-19.5c4-14.9,6-28.2,6-39.9c0-20.4-6.5-41.9-19.5-64.5l-5.1-8.8
				c-5.9-10.2-10.8-19.3-14.9-27.4c-4-8-7.4-16.7-10.2-26c-3.7-12.1-5.6-24.1-5.6-36.2c0-13.6,3.1-27.9,9.3-42.7
				c3.1-7.1,7.5-12.9,13.2-17.4c5.7-4.5,12.1-6.7,19.3-6.7c5.6,0,10.8,1.8,15.6,5.3c4.8,3.6,7.2,7.8,7.2,12.8c0,2.8-1.1,5-3.3,6.5
				c-2.2,1.6-4.8,2.3-7.9,2.3c-3.4,0-6.7-0.9-9.8-2.8c-6.8,0.3-12.2,6.3-16.3,18.1c-3.4,10.8-5.1,19.8-5.1,26.9c0,9,1.4,18,4.2,27.2
				c2.8,9.1,6.3,17.4,10.7,24.8l10.2,18.6l16.3,30.6c4.3,8.7,7.8,18.7,10.4,30.2c2.6,11.5,3.9,23.1,3.9,34.8
				c0,18.9-4.3,36.8-13,53.9c-4.3,8.7-10.4,15.6-18.3,20.9s-16.6,7.9-26.2,7.9v1.4C583.4,1332.6,578.7,1330.6,574.8,1327.5z"/>
		</g>
		<path fill="#333333" d="M428,1164c-20.7-23.1-45.4-42.6-64.7-67.1c-4.2-5.3-13.5,1.9-9.4,7.3c1.6,2,1.6,4.1,1.6,6.6
			c0,4.9,4.9,6.7,8.4,5.4c16.1,18,34.6,33.8,51.1,51.5c-12.6,9.9-24.9,20.2-36.5,31.2c-11.8,11-24.9,23.5-31.8,38.4
			c-3.2,7,7.1,13.1,10.3,6c6.7-14.6,19.6-26.3,31.1-37.1c12.7-11.9,26.1-22.9,39.8-33.6C430.6,1170.4,429.9,1166.2,428,1164z"/>
		<path fill="#333333" d="M356.1,1137.6c-9.2-7.5-20.3-13.3-28.8-21.5c-5.6-5.4-14.1,3.1-8.5,8.5c7.6,7.3,17.2,12.6,25.5,18.9
			c4.9,3.7,9.7,7.8,13.9,12.4c1.6,1.7,2.9,3.6,3.9,5.7c0.9,1.9,0.5,1.3,0.2,2.3c-1,2.9-5.2,7.1-7.6,9.8c-4.3,4.7-8.9,9.1-13.5,13.6
			c-7.5,7.2-16,14-22.4,22.2c-4.7,6,3.7,14.6,8.5,8.5c7.2-9.3,17-17,25.5-25.2c7.5-7.2,18.7-16.3,21.5-26.8
			C377.3,1154.7,363.6,1143.7,356.1,1137.6z"/>
		<path fill="#333333" d="M659.8,1164c20.7-23.1,45.4-42.6,64.7-67.1c4.2-5.3,13.5,1.9,9.4,7.3c-1.6,2-1.6,4.1-1.6,6.6
			c0,4.9-4.9,6.7-8.4,5.4c-16.1,18-34.6,33.8-51.1,51.5c12.6,9.9,24.9,20.2,36.5,31.2c11.8,11,24.9,23.5,31.8,38.4
			c3.2,7-7.1,13.1-10.3,6c-6.7-14.6-19.6-26.3-31.1-37.1c-12.7-11.9-26.1-22.9-39.8-33.6C657.1,1170.4,657.8,1166.2,659.8,1164z"/>
		<path fill="#333333" d="M731.6,1137.6c9.2-7.5,20.3-13.3,28.8-21.5c5.6-5.4,14.1,3.1,8.5,8.5c-7.6,7.3-17.2,12.6-25.5,18.9
			c-4.9,3.7-9.7,7.8-13.9,12.4c-1.6,1.7-2.9,3.6-3.9,5.7c-0.9,1.9-0.5,1.3-0.2,2.3c1,2.9,5.2,7.1,7.6,9.8c4.3,4.7,8.9,9.1,13.5,13.6
			c7.5,7.2,16,14,22.4,22.2c4.7,6-3.7,14.6-8.5,8.5c-7.2-9.3-17-17-25.5-25.2c-7.5-7.2-18.7-16.3-21.5-26.8
			C710.4,1154.7,724.1,1143.7,731.6,1137.6z"/>
	</g>
	<g>
		<path fill="#F39DA3" d="M2550.7,553.8c-758.8,355.4-1517.7-355.4-2276.5,0c0-59.2,0-53.8,0-113c758.8-355.4,1517.7,355.4,2276.5,0
			C2550.7,500.1,2550.7,494.6,2550.7,553.8z"/>
		<g>
			<g>
				<path fill="#333333" d="M344,551.6c0,13,2.6,24.3,7.9,34.1c5.3,9.7,12.2,17.4,20.9,23.1c8.7,5.7,18.6,9.2,29.7,10.7
					c11.1,1.5,22.8,0.5,34.8-3c10.8-3.1,19.8-8.4,26.9-16.1c7.1-7.7,11.4-19.1,13-34.3c0.5-0.6,0.9-1.2,1.4-1.7
					c10.8,0.2,18.5,2.9,23,7.8c4.5,4.9,6.7,10.8,6.7,17.6c0,8.4-2.4,14.7-7.2,18.9c-4.8,4.3-9.4,7.7-13.7,10.2
					c0,5.6-1.4,10.3-4.2,14.2c-2.8,3.9-6.1,7.2-10,9.8c-3.9,2.6-8.1,4.8-12.5,6.4c-4.5,1.6-8.4,2.9-11.8,3.8
					c-13,3.5-24.8,4.8-35.5,3.6c-10.7-1.2-20.7-3.3-30-6.6s-18.1-7.2-26.5-12c-8.4-4.7-16.8-8.6-25.3-11.6c-8.5-3-17.3-4.7-26.5-5.2
					c-9.1-0.4-19.1,1.9-30,7.2c-4.8,2.3-9.6,4.7-14.4,7.1c0-6.5,0-13,0-19.5c4-2,8.5-4.5,13.5-7.4c4.9-2.9,9.4-6.5,13.5-10.8
					c4-4.4,7.4-9.9,10.2-16.5c2.8-6.7,4.2-15,4.2-24.9c0-90.7,0-181.4,0-272.1c0-9.6-3.6-15.3-10.9-17.1c-7.3-1.7-17.4,0.5-30.4,7
					c0-5.3,1.9-10.8,5.6-16.5c3.7-5.7,10.2-10.9,19.5-15.2c8-3.8,15.2-5.6,21.6-5.7c6.3,0,11.5,1.2,15.6,3.5
					c4-5.7,9.2-11.3,15.6-16.6c6.3-5.3,13.5-9.6,21.6-12.6c9.3-3.5,15.8-3.8,19.5-1.3c3.7,2.6,5.6,6.5,5.6,11.8
					c-12.7,4.4-22.8,10.7-30.2,18.6c-7.4,8-11.1,16.8-11.1,26.4C344,361.8,344,456.7,344,551.6z"/>
				<path fill="#333333" d="M574.3,544.3c-15.5,2.2-29.8,1.8-43-1.1c-13.2-3-24.7-8.3-34.6-16c-9.9-7.7-17.6-17.8-23.2-30.4
					c-5.6-12.6-8.4-27.5-8.4-44.8c0-17.6,2.8-34,8.4-49c5.6-15,13.3-28.4,23.2-40c9.9-11.6,21.4-21.1,34.6-28.3
					c13.2-7.2,27.5-12,43-14.2c15.2-2.1,29.4-1.4,42.7,2c13.3,3.5,24.9,9.6,34.8,18.4c9.9,8.8,17.6,19.9,23.2,33.2
					c5.6,13.4,8.4,28.9,8.4,46.5c0,17.6-2.8,33.5-8.4,47.8c-5.6,14.2-13.3,26.6-23.2,37.1c-9.9,10.6-21.5,19.1-34.8,25.7
					C603.7,537.9,589.5,542.2,574.3,544.3z M574.8,522.9c11.4-1.6,21.2-5.3,29.3-11.1c8-5.9,14.7-13.3,20-22.3
					c5.3-9,9.1-19.2,11.6-30.5c2.5-11.4,3.7-23.2,3.7-35.6c0-12.1-1.2-23.4-3.7-34.1c-2.5-10.6-6.3-19.7-11.6-27.1
					c-5.3-7.4-12-13-20.2-16.7c-8.2-3.7-18-4.8-29.5-3.2c-11.5,1.6-21.3,5.4-29.5,11.3c-8.2,5.9-14.9,13.3-20.2,22.2
					c-5.3,8.9-9.1,19-11.6,30.4c-2.5,11.3-3.7,23.2-3.7,35.6c0,12.4,1.2,23.9,3.7,34.5c2.5,10.6,6.4,19.7,11.8,27.2
					c5.4,7.5,12.2,13,20.4,16.5C553.5,523.6,563.3,524.5,574.8,522.9z"/>
				<path fill="#333333" d="M820,535.9c-18.3-1.1-32.6-5.3-43-12.9c-10.4-7.6-18.2-16.9-23.4-28.1c-5.3-11.2-8.6-23.3-10-36.3
					c-1.4-13-2.1-25.2-2.1-36.7c0-17-0.2-30.4-0.7-40.2c-0.5-9.8-1.7-17.1-3.7-22.1c-2-4.9-5-8.1-9.1-9.5c-4-1.4-9.8-2-17.2-1.9
					c0-4.6,0-9.3,0-13.9c7.7-0.2,14.3-0.7,19.7-1.6c5.4-1,10.3-2.3,14.6-4.2c4.3-1.8,8.4-3.9,12.1-6.4c3.7-2.4,7.7-5,12.1-7.6
					c4.6,0.1,9.3,0.3,13.9,0.4c0,32.7,0,65.3,0,98c0,7.7,0.3,17.2,0.9,28.4c0.6,11.2,2.5,21.9,5.6,32.2c3.1,10.3,7.7,19.3,13.9,26.9
					c6.2,7.6,14.9,11.7,26,12.4c9.6,0.6,18.1-1.6,25.5-6.9c7.4-5.3,13.6-12.5,18.6-21.8c4.9-9.3,8.7-20.3,11.1-33
					c2.5-12.7,3.7-26.4,3.7-40.9c0-10.8-0.9-20.8-2.6-29.7c-1.7-9-4.6-16.8-8.8-23.4c-4.2-6.6-9.9-12.2-17.2-16.7
					c-7.3-4.5-16.5-7.8-27.6-9.8c3.4-5,8.1-9,14.2-11.7c6-2.8,12.1-3.9,18.3-3.3c2.5,0.2,5.2,0.8,8.1,1.7c2.9,0.9,5.6,2,8.1,3.3
					c2.5,1.3,4.6,3,6.3,5c1.7,2,2.6,4.3,2.6,6.8c10.2,1.1,16.8,6.2,19.7,15.2c2.9,9,4.4,23.3,4.4,42.8c0,18.3-1.1,36.4-3.2,54.4
					c-2.2,18-6.7,34-13.5,47.9c-6.8,14-16.3,25-28.6,33.1C856.7,533.8,840.4,537.1,820,535.9z"/>
				<path fill="#333333" d="M1024.7,508.2c0,6.2,1,11.5,3,15.8c2,4.4,4.5,8.1,7.4,11.1c2.9,3,6.3,5.4,10.2,7.2
					c3.9,1.8,7.7,3,11.4,3.7c0,4.6,0,9.3,0,13.9c-3.7-0.7-7.8-1.7-12.3-3c-4.5-1.3-9.2-2.7-14.2-4.2c-5-1.5-9.7-2.8-14.2-4.1
					c-4.5-1.2-8.6-2.1-12.3-2.8c-3.7-0.6-7.8-1-12.3-1.3c-4.5-0.2-9.2-0.4-14.2-0.6c-5-0.1-9.7-0.3-14.2-0.5
					c-4.5-0.2-8.6-0.5-12.3-1c0-4.6,0-9.3,0-13.9c8.4,1.2,15.8-0.1,22.3-3.8c6.5-3.7,9.8-11.5,9.8-23.6c0-26.6,0-53.2,0-79.9
					c0-11.4-0.2-21-0.7-28.7c-0.5-7.7-1.8-13.7-3.9-18.2c-2.2-4.5-5.3-7.9-9.3-10.2c-4-2.3-9.6-4-16.7-5c0-4.6,0-9.3,0-13.9
					c7.7,1.1,14.3,1.6,19.7,1.5c5.4-0.1,10.3-0.8,14.6-1.9c4.3-1.2,8.4-2.7,12.1-4.6c3.7-1.9,7.7-3.8,12.1-5.9
					c4.6,0.8,9.3,1.6,13.9,2.4C1024.7,394,1024.7,451.1,1024.7,508.2z M972.3,259.6c0-9.3,3.3-16.6,9.8-22
					c6.5-5.3,14.2-7.3,23.2-5.8c9,1.5,16.6,6,23,13.4c6.3,7.5,9.5,15.9,9.5,25.1c0,9.3-3.2,16.5-9.5,21.8c-6.3,5.2-14,7.1-23,5.6
					c-9-1.5-16.7-5.9-23.2-13.2C975.5,277.2,972.3,268.9,972.3,259.6z"/>
				<path fill="#333333" d="M1265.3,518.8c0-20.7-1-38.3-3-52.7c-2-14.4-5-26.3-9.1-35.6c-4-9.3-9.1-16.5-15.3-21.5
					c-6.2-5-13.3-8.5-21.4-10.4c-8.1-1.9-15.7-2.1-23-0.7c-7.3,1.4-13.7,4.9-19.3,10.3c-5.6,5.4-10,13.1-13.2,23.1
					c-3.3,10-4.9,22.4-4.9,37.2c0,22,0,44,0,65.9c0,6.2,1,11.5,3,16c2,4.5,4.5,8.3,7.4,11.4c2.9,3.1,6.3,5.7,10.2,7.6
					c3.9,2,7.7,3.4,11.4,4.2c0,4.6,0,9.3,0,13.9c-3.7-0.8-7.8-2-12.3-3.5c-4.5-1.5-9.2-3.1-14.2-4.8c-5-1.7-9.7-3.3-14.2-4.7
					c-4.5-1.4-8.6-2.6-12.3-3.4c-3.7-0.8-7.8-1.4-12.3-1.9c-4.5-0.5-9.2-0.9-14.2-1.3c-5-0.4-9.7-0.8-14.2-1.3
					c-4.5-0.4-8.6-1-12.3-1.7c0-4.6,0-9.3,0-13.9c8.4,1.6,15.8,0.8,22.3-2.5c6.5-3.3,9.8-11,9.8-23.1c0-25.8,0-51.7,0-77.5
					c0-11.5-0.2-21-0.7-28.7c-0.5-7.7-1.8-13.8-3.9-18.5c-2.2-4.6-5.3-8.2-9.3-10.7c-4-2.5-9.6-4.5-16.7-5.9c0-3.9,0-7.7,0-11.6
					c7.7,1.5,14.5,2.4,20.2,2.7c5.7,0.2,10.9-0.1,15.6-1c4.6-0.9,8.9-2.1,12.8-3.8c3.9-1.7,8-3.4,12.3-5.2c3.9,0.8,7.7,1.7,11.6,2.5
					c0,10.8,0,21.7,0,32.5c5.9-9.5,14-16.6,24.4-21.3c10.4-4.6,22.7-5.3,36.9-1.9c30.6,7.2,53.2,22,67.8,44.2
					c14.5,22.1,21.8,54.8,21.8,97.8c0,16.3,0,32.5,0,48.8c0,6.2,1,11.6,3,16.1c2,4.5,4.5,8.4,7.4,11.6c2.9,3.2,6.3,5.8,10.2,7.9
					c3.9,2.1,7.7,3.5,11.4,4.5c0,5.4,0,10.8,0,16.3c-4-1-7.6-2.1-10.7-3.4c-3.1-1.2-6.3-2.5-9.5-3.8c-3.2-1.3-7-2.7-11.1-4.2
					c-4.2-1.5-9.2-3-15.1-4.4c-4-1-8.6-1.9-13.7-2.7c-5.1-0.8-11.2-1.1-18.3-1c-1.4-3-2.8-5.9-4.2-8.9c2.2-1.6,3.9-5.2,5.1-10.6
					c1.2-5.4,2.1-11.8,2.6-19.1c0.5-7.3,0.8-15.1,0.9-23.5C1265.2,534.1,1265.3,526.2,1265.3,518.8z"/>
				<path fill="#333333" d="M1467.7,662.6c-16.7-4.1-31.4-10.6-44.1-19.4c-12.7-8.8-23.4-19.3-32-31.5
					c-8.7-12.2-15.2-25.9-19.5-40.9c-4.3-15-6.5-30.9-6.5-47.6c0-19.5,3-35.4,9.1-47.6c6-12.3,13.9-21.6,23.7-28.2
					c9.8-6.5,20.9-10.3,33.4-11.3c12.5-1,25.3,0.1,38.3,3.3c13.9,3.4,26.3,8.6,37.1,15.4c10.8,6.8,20.9,17.7,30.2,32.6
					c1.9-6.4,4.8-10.9,8.8-13.5c4-2.6,8.7-4.1,13.9-4.6c5.3-0.5,10.8-0.2,16.7,0.9c5.9,1,11.6,2.2,17.2,3.5c0,4.6,0,9.3,0,13.9
					c-4-0.9-7.4-0.8-10,0.3c-2.6,1.1-4.6,5.1-6,12.1c-1.4,7-2.3,17.6-2.8,31.9c-0.5,14.3-0.7,34.1-0.7,59.5c0,35.3,0,70.6,0,105.9
					c0,35.3-8.8,58.9-26.2,70.7c-17.5,11.8-45,13.2-82.4,3.9c-22.9-5.7-39.9-12.4-50.8-20.1c-11-7.7-16.5-15.3-16.5-22.7
					c-8.1-2-13.8-6.2-17.2-12.4c-3.4-6.3-5.1-12.2-5.1-17.8c0-5.3,1.2-9.5,3.7-12.8c2.5-3.3,5.6-5.6,9.3-7.2
					c3.7-1.5,7.7-2.4,11.8-2.6c4.2-0.2,8,0.1,11.4,1c0,8.4,1,16.4,3,24.2c2,7.8,5.3,15,10,21.5c4.6,6.6,10.6,12.4,17.9,17.5
					c7.3,5.1,16.2,8.9,26.7,11.5c9.3,2.3,17.8,3,25.5,2.1c7.7-0.9,14.3-3.9,19.7-9.1c5.4-5.2,9.7-12.7,12.8-22.5
					c3.1-9.8,4.6-22.4,4.6-37.9c0-10.1,0-20.1,0-30.2c-10.5,7.7-21.4,11.7-32.5,11.9C1489.1,666.4,1478.2,665.2,1467.7,662.6z
					 M1474.7,642.9c10.5,2.6,19.8,2.5,27.9-0.4c8-2.8,14.6-7.8,19.7-15c5.1-7.1,9-15.9,11.6-26.2c2.6-10.4,3.9-21.9,3.9-34.6
					c0-12.1-1.2-23.7-3.7-35c-2.5-11.3-6.3-21.6-11.6-31.1c-5.3-9.5-11.8-17.5-19.7-24c-7.9-6.6-17.4-11.2-28.6-14
					c-12.1-3-22.3-3.3-30.6-0.9c-8.4,2.4-15,6.9-20,13.6c-5,6.7-8.5,15-10.7,25.2c-2.2,10.1-3.3,21.4-3.3,33.8c0,12.1,1,23.9,3,35.6
					c2,11.6,5.6,22.4,10.7,32.2c5.1,9.8,11.8,18.3,20,25.4C1451.5,634.6,1462,639.8,1474.7,642.9z"/>
			</g>
			<g>
				<path fill="#333333" d="M1770,616.1c-0.3-16.8-0.7-30.1-1.2-39.9c-0.5-9.8-1.6-17.4-3.5-22.9c-1.9-5.4-4.8-9.2-8.8-11.2
					c-4-2.1-9.8-3.8-17.2-5.1c0-4.6,0-9.3,0-13.9c7.7,1.4,14.3,2,19.7,2c5.4,0,10.3-0.6,14.6-1.8c4.3-1.2,8.4-2.7,12.1-4.6
					c3.7-1.9,7.7-3.9,12.1-6c4.6,0.7,9.3,1.4,13.9,2.1c0,32.7,0,65.3,0,98c0,18.6,1.1,34.4,3.2,47.4c2.2,13,5.3,23.7,9.5,32
					c4.2,8.3,9.1,14.6,14.9,18.7c5.7,4.2,12.1,6.7,19.3,7.5c6.8,0.8,13.6,0.1,20.4-2.1c6.8-2.2,13-6.4,18.6-12.5
					c5.6-6.1,10.1-14.3,13.5-24.5c3.4-10.2,5.1-22.9,5.1-38.1c0-7.6,0-15.2,0-22.8c0-11.4-0.2-21-0.7-28.6c-0.5-7.6-1.8-13.6-3.9-18
					c-2.2-4.4-5.3-7.6-9.3-9.7c-4-2.1-9.6-3.5-16.7-4.2c0-4.6,0-9.3,0-13.9c7.7,0.8,14.3,1,19.7,0.5c5.4-0.4,10.3-1.4,14.6-2.9
					c4.3-1.5,8.4-3.3,12.1-5.6c3.7-2.2,7.7-4.5,12.1-7c4.6,0.3,9.3,0.6,13.9,0.9c0,76,0,152,0,228c0,35.9-8.2,61.3-24.6,75.7
					c-16.4,14.4-42,20.1-76.6,16c-19.8-2.4-34.9-6.5-45.3-12c-10.4-5.5-15.6-11.4-15.6-17.6c-8.1-1.2-13.8-4.8-17.2-10.8
					c-3.4-6-5.1-11.7-5.1-17.3c0-5.3,1.2-9.6,3.7-13.1c2.5-3.5,5.6-6.2,9.3-8c3.7-1.9,7.7-3.2,11.8-3.8c4.2-0.6,8-0.7,11.4-0.2
					c0,7.7,0.9,15.1,2.8,22c1.9,6.9,4.9,13.2,9.1,18.9c4.2,5.7,9.5,10.4,16,14.2c6.5,3.8,14.4,6.3,23.7,7.3c8.4,1,15.9,0.4,22.5-1.7
					c6.7-2.1,12.4-6.2,17.2-12.2c4.8-6.1,8.5-14.2,11.1-24.5c2.6-10.3,3.9-23.2,3.9-38.7c0-14.4,0-28.8,0-43.2
					c-3.1,5-6.4,9.6-10,13.8c-3.6,4.2-7.9,7.6-13,10.4c-5.1,2.7-11.1,4.8-18.1,6c-7,1.2-15.2,1.3-24.8,0.1
					c-15.2-1.9-27.8-6-37.8-12.3c-10.1-6.2-18.3-14.6-24.6-25c-6.3-10.4-10.8-22.8-13.5-37.2C1771.8,650.3,1770.3,634.1,1770,616.1z
					"/>
				<path fill="#333333" d="M2122.4,748.3c-15.5,1.1-29.8-0.9-43-5.9c-13.2-5-24.7-12.4-34.6-22.3c-9.9-9.8-17.6-21.8-23.2-35.8
					c-5.6-14-8.4-29.7-8.4-47c0-17.6,2.8-33.2,8.4-46.8c5.6-13.6,13.3-25,23.2-34.5c9.9-9.5,21.4-16.8,34.6-22.1
					c13.2-5.2,27.5-8.3,43-9.4c15.2-1.1,29.4,0,42.7,3.4c13.3,3.3,24.9,9,34.8,17c9.9,8,17.6,18.3,23.2,31
					c5.6,12.7,8.4,27.8,8.4,45.5c0,17.6-2.8,33.9-8.4,48.8c-5.6,14.8-13.3,28-23.2,39.3c-9.9,11.3-21.5,20.4-34.8,27.1
					C2151.8,743.3,2137.6,747.3,2122.4,748.3z M2122.9,726.9c11.5-0.8,21.2-4.2,29.3-9.9c8-5.7,14.7-13.2,20-22.3
					c5.3-9.1,9.1-19.4,11.6-30.9c2.5-11.5,3.7-23.4,3.7-35.8c0-12.1-1.2-23.4-3.7-33.9c-2.5-10.5-6.3-19.4-11.6-26.7
					c-5.3-7.3-12-12.8-20.2-16.7c-8.2-3.8-18-5.3-29.5-4.5c-11.5,0.8-21.3,3.6-29.5,8.4c-8.2,4.9-14.9,11.3-20.2,19.3
					c-5.3,8-9.1,17.5-11.6,28.4c-2.5,10.9-3.7,22.5-3.7,34.9c0,12.4,1.2,24.1,3.7,35.2c2.5,11.1,6.4,20.8,11.8,29.2
					c5.4,8.4,12.2,14.9,20.4,19.4C2101.6,725.8,2111.4,727.7,2122.9,726.9z"/>
				<path fill="#333333" d="M2438.6,548.2c0-11.4-0.2-20.9-0.7-28.3c-0.5-7.4-1.8-12.7-3.9-16c-2.2-3.3-5.3-5-9.3-5.1
					c-4-0.1-9.6,1.2-16.7,3.8c0-4.6,0-9.3,0-13.9c7.7-2.9,14.3-5.9,19.7-8.9c5.4-3.1,10.3-6.4,14.6-10.1c4.3-3.6,8.4-7.5,12.1-11.6
					c3.7-4.1,7.7-8.4,12.1-13.1c4.6-2.1,9.3-4.2,13.9-6.3c0,54.9,0,109.9,0,164.8c0,6.2,1,10.8,3,13.9c2,3.1,4.5,5.2,7.4,6.3
					c2.9,1.1,6.3,1.2,10.2,0.4c3.9-0.8,7.7-2.1,11.4-4c0,5.4,0,10.8,0,16.3c-7.1,2.7-13.2,4.8-18.3,6.4c-5.1,1.7-11.5,4.3-19.3,7.8
					c-10.5,4.8-21.1,10.4-31.6,16.9c-1.5-0.9-3.1-1.8-4.6-2.7c0-8.7,0-17.3,0-26c-3.4,6.7-6.9,12.9-10.4,18.8
					c-3.6,5.9-7.8,11.4-12.8,16.5c-5,5.1-10.7,9.9-17.2,14.2c-6.5,4.3-14.2,8-23.2,11c-31,10.2-53.1,6.4-66.4-9.2
					c-13.3-15.7-20.3-41.7-20.9-77.8c-0.3-16.6-0.7-29.8-1.2-39.4c-0.5-9.6-1.6-16.8-3.5-21.5c-1.9-4.7-4.8-7.3-8.8-7.8
					c-4-0.5-9.8,0-17.2,1.5c0-4.6,0-9.3,0-13.9c7.7-1.5,14.3-3.4,19.7-5.5c5.4-2.1,10.3-4.6,14.6-7.5c4.3-2.9,8.4-6,12.1-9.4
					c3.7-3.4,7.7-7.1,12.1-11c4.6-1.2,9.3-2.5,13.9-3.8c0,32.7,0,65.3,0,98c0,18.9,1.2,34.3,3.7,46.3c2.5,12,6,21.2,10.4,27.6
					c4.5,6.4,9.8,10.3,16,11.6c6.2,1.3,13,0.8,20.4-1.7c8.7-2.9,16.6-8,23.9-15.1c7.3-7.1,13.5-15.8,18.6-25.8
					c5.1-10,9.1-21.1,11.8-33.2c2.8-12.1,4.2-24.5,4.2-37.2C2438.6,559,2438.6,553.6,2438.6,548.2z"/>
			</g>
		</g>
		<path fill="#333333" d="M1286.6,691c-61.5,31.3-134.1,13.4-196.7-4.8c-34.3-9.9-68.6-20-102.6-31c-35.5-11.5-71-23.4-106.9-33.8
			c-63.9-18.5-130.6-33.9-197.5-25.6c-58.5,7.3-115.3,30.6-159.3,70.3c-10.4,9.3-19.3,19.8-28.5,30.3c-9.7,11-18.6,22.9-25.3,35.9
			c-6.3,12-10.3,25.1-12.1,38.5c-0.8,6-2.1,12.5-2,18.6c0,1.6,0.4,3.1,1.1,4.4c0.2,0.4,0.5,0.8,0.8,1.1c2.9,4.6,11.5,3.6,11.1-3
			c-0.1-1.4-0.4-2.7-1.1-3.9c0-2.2,0.5-4.4,0.9-6.5c0.7-4.3,0.9-8.7,1.6-13.1c2.5-14.7,8.3-28.3,16.2-40.9
			c8.3-13.3,19-25.1,29.5-36.8c9.9-11,21-21,32.8-29.9c47.5-35.9,107.2-53.9,166.3-55.6c32.8-1,65.1,4.2,97.1,11
			c36.6,7.8,72.5,18.4,108.2,29.7c68.2,21.6,136.1,45.4,205.7,62.3c54.8,13.3,114.8,19.4,166.7-7
			C1299.5,697.8,1293.4,687.5,1286.6,691z"/>
		<path fill="#333333" d="M2615.3,700.1c-19.5-21.1-46.2-31.3-74.7-29.9c-31.1,1.5-60.2,16.2-86,32.6c-23.5,15-45.3,32.5-67.9,48.8
			c-41.5,30-84.2,58.7-130.4,81c-44,21.3-95.6,39.1-144.9,29c-26.7-5.4-49.6-20.1-67.4-40.4c-5.1-5.8-13.6,2.7-8.5,8.5
			c16.4,18.6,37,32.7,60.7,40.3c22.6,7.2,47,7.6,70.4,4.4c52.1-7.3,101-31.8,145.7-58.5c10.4-6.2,20.5-12.7,30.6-19.3
			c1.7,1.5,4.1,2.1,6.7,0.6c28.2-16.6,55.8-35.1,87.2-45.2c25.8-8.3,55.9-10.6,80.3,3.2c37.7,21.3,33.5,71.2,13.1,103
			c-4.9,7.7-11,14.5-17.7,20.7c-5.7,5.3,2.8,13.7,8.5,8.5c30.4-28.1,48.1-74.8,29.1-114.1c-9-18.6-26.8-30.9-46.3-36.4
			c-29.2-8.1-60.8-1.3-88.1,10.3c-2.4,1-4.8,2.1-7.2,3.2c9.6-7,19.1-14,28.7-21c45.9-33.3,112.5-71.5,163.7-26.4
			c17.3,15.2,31.2,39.9,18.4,62.2c-3.9,6.7,6.5,12.7,10.3,6C2643.8,746.5,2633.2,719.5,2615.3,700.1z"/>
		<path fill="#333333" d="M2337.5,739.8c-8.2,10.5-19.4,19-29.9,27c-16.6,12.6-34.3,24-52.4,34.4c-19.3,11.1-39.5,20.9-60.6,28.2
			c-17.6,6.1-36.5,10.7-55.3,8.7c-9.7-1-19-5-25.8-12.1c-5.4-5.5-13.9,2.9-8.5,8.5c26.5,27.2,71.8,14.7,102.5,2.9
			c40.1-15.4,77.8-38.2,111.6-64.5c9.5-7.4,19.4-15.2,26.9-24.7C2350.6,742.3,2342.2,733.7,2337.5,739.8z"/>
		<path fill="#333333" d="M2477.5,771.9c-7.5-1.9-10.7,9.7-3.2,11.6c26.8,6.8,29.3,48.6,5.8,60.9c-6.8,3.6-0.8,13.9,6,10.3
			C2518.8,837.5,2514.2,781.1,2477.5,771.9z"/>
		<path fill="#333333" d="M2541.4,704.7c-7.2,2.7-4.1,14.3,3.2,11.6c14.1-5.4,26.8-1.8,36.6,9.6c9.1,10.6,13.1,26.8,11.2,40.5
			c-1.1,7.6,10.5,10.8,11.6,3.2C2608.9,734.2,2581.8,689.4,2541.4,704.7z"/>
		<path fill="#333333" d="M1268.6,730.3c-2.3,2.6-4.1,5.4-6.1,8.3c-1.4,2.1-4.5,3.3-6.6,4.5c-5,2.8-10.2,5-15.6,6.9
			c-11,3.9-22.5,6-34.1,7c-26.3,2.3-52.8-0.8-78.6-5.9c-53.1-10.4-104.3-29.5-154.2-50.2c-16.7-6.9-33.1-14.4-50-20.5
			c-18.2-6.6-36.9-12.1-55.8-16.6c-40.9-9.7-84.5-15.2-126.3-7.8c-20.2,3.6-39.6,11.2-55.7,24c-16.6,13.2-27.2,32.5-32.2,52.9
			c-1.8,7.5,9.7,10.7,11.6,3.2c21.9-89,136.4-76.2,204.3-59.6c18.5,4.5,36.8,10.2,54.7,16.8c17.4,6.5,34.2,14.2,51.4,21.3
			c50.3,20.6,101.9,39.4,155.5,49.3c26.6,4.9,54,7.5,81,4.5c12.1-1.4,23.9-3.9,35.3-8.2c5.4-2.1,10.7-4.5,15.8-7.4
			c2.1-1.2,5.2-2.5,6.8-4.4c2.7-3,4.5-6.6,7.2-9.6C1282.2,733,1273.7,724.5,1268.6,730.3z"/>
		<path fill="#333333" d="M1186.5,678.2c-63.2-0.3-125.1-22.6-181.5-49.5c-6.9-3.3-13,7-6,10.3c58.4,27.8,122.1,50.9,187.6,51.1
			C1194.3,690.2,1194.3,678.2,1186.5,678.2z"/>
		<path fill="#333333" d="M863.6,714.9c-60.2-41.2-189.5,1.3-162.2,88.3c2.3,7.3,13.9,4.2,11.6-3.2
			c-24.1-76.7,93.2-109.9,144.6-74.7C864,729.7,870,719.3,863.6,714.9z"/>
		<path fill="#333333" d="M620.9,663.8c-28.2,1.9-53.6,21.5-72.6,41c-19.1,19.6-38.5,46.7-38.9,75.2c-0.1,7.7,11.9,7.7,12,0
			c0.3-24.9,18-48.3,34.2-65.6c16.5-17.5,40.1-37,65.2-38.7C628.6,675.3,628.7,663.3,620.9,663.8z"/>
		<path fill="#333333" d="M2644.3,257.2c-65.6-33.2-140.2-35.9-210.5-17.1c-35.4,9.5-69.3,24.4-101,42.7
			c-32.2,18.5-63,39.7-94.9,58.7c-12.8,7.6-25.7,15-38.7,22.2c-1,0.3-1.9,0.5-2.9,0.8c-1.8,0.5-3,1.5-3.6,2.8
			c-48,26-98,48.4-150.9,62.6c-35.5,9.5-71.9,14.9-108.7,16c-39.5,1.2-79.3-2.6-118.5-7.7c24.6-3.2,48.7-9.5,71.4-19
			c27.9-11.7,51.3-28.7,72.8-49.8c24.3-23.8,45.6-50.4,68.4-75.6c17.5-19.3,36.1-37.9,57.1-53.4c17.2-12.7,35.8-23.6,55-33
			c20.5-10.1,42.3-18.2,65-22.1c18.6-3.2,39.1-2.6,55.4,8c6.5,4.2,12.5-6.2,6-10.3c-19.6-12.8-43.9-12.8-66.1-9
			c-26.2,4.5-51.5,15.2-75,27.4c-21.1,10.9-40.9,24-59.4,38.9c-26.4,21.3-48.6,47.2-70.8,72.7c-18.9,21.7-38,43.4-59.6,62.6
			c-19.2,17.1-42.7,29.3-66.8,37.8c-40.7,14.3-85.7,18.6-128.7,12.9c-61.1-11.2-121.6-25.7-182.2-39.4
			c-36.8-8.4-73.5-16.8-110.3-25.1c-34-7.7-68.5-15.7-100.1-30.8c-7-3.4-13.8-7.2-20.4-11.4c-6.5-4.2-12.5,6.2-6,10.3
			c28.6,18.3,61.8,28.3,94.5,36.6c34.6,8.7,69.5,16.4,104.3,24c63.7,14.1,127.2,29.5,191.2,42.2c0.6,0.4,1.3,0.7,2.1,0.9
			c8.9,2,17.9,3.5,27,4.7c10.2,1.9,20.4,3.6,30.7,5.3c78.4,12.8,158.5,20.7,237.2,6.3c69.5-12.7,134.9-41.2,196.5-75
			c30.4-8.5,59.3-21.4,88.3-33.7c30.6-13,63.3-26.4,96.6-29.7c45.1-4.5,94.6,1.9,134,25.4c17.6,10.5,32.3,25.1,41.2,43.7
			c10,20.9,9.7,45.1,4.6,67.3c-1.7,7.5,9.8,10.7,11.6,3.2c5.3-23.4,5.7-47.9-3.2-70.5c-7.9-19.9-22.2-36-39.4-48.4
			c-37.3-26.7-87.1-35.1-132.1-33.7c-51.1,1.5-96.8,23.1-143.2,42.6c13-7.9,25.9-16,38.8-24.1c31.8-20,63.4-39.2,98.6-52.8
			c68.2-26.4,144.3-33.3,213.7-7.6c8.6,3.2,17,7,25.2,11.2C2645.1,271,2651.2,260.7,2644.3,257.2z"/>
		<path fill="#333333" d="M2477.7,360.2c-6.8,3.7-0.8,14,6,10.3c17.6-9.5,30.5,7.2,37.9,21.4c8.4,16.1,14.3,36.6,13,54.9
			c-0.6,7.7,11.4,7.7,12,0C2549,414,2523.5,335.5,2477.7,360.2z"/>
		<path fill="#333333" d="M2621.6,279.7c-36.8-35.9-97.1-26.5-139.1-5.7c-6.9,3.4-0.9,13.8,6,10.3c37-18.3,91.9-28,124.6,3.9
			C2618.6,293.6,2627.1,285.1,2621.6,279.7z"/>
		<path fill="#333333" d="M2247.4,139.1c-31.4-7.7-63.6-7.7-95,0.3c-30.8,7.8-59.4,23.1-85.9,40.4c-11.7,7.6-23.7,15.4-34,24.8
			c-8.1,7.3-15.1,15.7-21.9,24.2c-16.1,20-30.5,41.4-46,61.9c-10.6,14-21.9,27.8-34.9,39.7c-10,9.1-22.3,18.1-36.2,19.5
			c-7.6,0.8-7.7,12.7,0,12c20.6-2.1,37.4-15.4,51.6-29.7c17.9-18,32.8-39.1,47.6-59.6c14-19.3,27.8-39.3,44.8-56.2
			c9.4-9.3,20.7-16.6,31.7-24c13.6-9.1,27.6-17.5,42.3-24.8c41.6-20.7,87.3-28.1,132.7-16.9C2251.8,152.5,2254.9,141,2247.4,139.1z"
			/>
		<path fill="#333333" d="M1737,390.8c-51-8.9-102.7-13.4-153.6-22.7c-51.4-9.4-103.3-23.7-146.9-53.4c-6.4-4.4-12.4,6-6,10.3
			c43.5,29.5,95,44.2,146.1,53.9c52.1,9.9,105.1,14.3,157.4,23.4C1741.3,403.7,1744.6,392.1,1737,390.8z"/>
		<path fill="#333333" d="M2170.9,336.3c-26.2,13.2-51.6,28-78.2,40.5c-26.3,12.4-54.8,23.2-84.2,23.4c-7.7,0.1-7.7,12,0,12
			c30.3-0.2,59.3-10.9,86.6-23.3c27.9-12.7,54.4-28.4,81.8-42.2C2183.9,343.2,2177.8,332.8,2170.9,336.3z"/>
		<path fill="#333333" d="M888.8,272.5c-41.7-34-101-40.2-152.8-41.6c-55.4-1.4-111.3,4.4-165.2,17.5
			c-55.4,13.4-111.1,36.7-150.6,79.2c-5.2,5.7,3.2,14.1,8.5,8.5c41.6-44.8,101.1-66.7,159.5-79.4c54-11.7,109.9-16.1,165.1-13.1
			c43,2.4,92.6,9.2,127.1,37.4C886.3,285.8,894.8,277.4,888.8,272.5z"/>
		<path fill="#333333" d="M904.4,242.8c-103.2-76.8-242-68.2-357.9-27.9c-5.3,1.8-10.6,3.8-15.8,5.8c-7.2,2.7-4.1,14.3,3.2,11.6
			c114.9-43.5,254.5-57.4,359.8,17.6c1.6,1.1,3.1,2.3,4.6,3.4C904.5,257.8,910.5,247.4,904.4,242.8z"/>
		<path fill="#333333" d="M248.5,441.4c-4.5-25.1-11.1-50.2-9.8-76c0.4-7.7-11.6-7.7-12,0c-1.2,23.8,4.1,47.3,8.7,70.6
			c4.7,23.9,7,47.1,4.6,71.4c-4.2,44-20.9,85.7-52.3,117.4c-5.4,5.5,3,14,8.5,8.5c32-32.3,49.1-73.7,54.9-118.4
			C254.4,490,253,466,248.5,441.4z"/>
		<path fill="#333333" d="M207.3,474.1c-1.6-7.6-13.1-4.4-11.6,3.2c5.7,27.2,3.1,53.4-7.2,79.2c-9.9,24.8-24.6,47.5-35.3,72
			c-3.1,7,7.3,13.1,10.3,6c11.2-25.4,26-49.1,36.6-74.8C211.4,532.1,213.4,503.1,207.3,474.1z"/>
	</g>
	<g>
		<rect x="294.3" y="2162.7" fill="#E4DAD8" width="656.6" height="226.5"/>
		<g>
			<g>
				<path fill="#333333" d="M474.5,2441.4h-99.4v-329.7h99.4v28.8l-58-2.8v105.4l58,10.7v22.3l-65.9-2.8v133.3l65.9-3.7V2441.4z"/>
				<path fill="#333333" d="M538.1,2441.4l-27.4-329.7h29.3l27.9,318.1h2.3l31.1-313.4h30.6l-45,325H538.1z"/>
				<path fill="#333333" d="M758.2,2441.4h-99.4v-329.7h99.4v28.8l-58-2.8v105.4l58,10.7v22.3l-65.9-2.8v133.3l65.9-3.7V2441.4z"/>
				<path fill="#333333" d="M828.7,2113.1c12.7-0.9,25.2-1.4,37.6-1.4h20c4.9,0,9,1.9,12.1,5.6c3.1,3.7,4.8,8.5,5.1,14.4l4.6,133.7
					l-20.9,27.4l37.1,138.4l-8.8,10.2h-27.4L864.5,2297l-23.7,2.3l-9.8,142.1h-21.4v-324.6C809.7,2115.3,816,2114.1,828.7,2113.1z
					 M873.8,2262.7c1.9,0,2.8-0.9,2.8-2.8v-115.6l-7-7l-32,3.3l1.4,124L873.8,2262.7z"/>
			</g>
			<path fill="#333333" d="M941,2512c-7.6-13.9-22.3-21.5-36.7-26.3c-19.3-6.5-40.2-8.4-60.4-9.2c-45-1.9-90.6,2.9-135,10.6
				c-19.5,3.4-38.5,7.8-57.3,13.9c-32.6,10.8-63.7,25.7-94.6,40.8c-53,25.9-108.4,54.5-168.2,59.5c-48.3,4.1-102.3-5.3-138-40.4
				c-15.9-15.6-29-37.1-31-59.6c-1.9-21.5,5.1-43.4,19.4-59.6c12.6-14.4,30.6-22.8,49.5-24.9c7.6-0.9,7.7-12.9,0-12
				c-24,2.7-46.1,13.4-61.3,32.5c-13.8,17.3-20.6,39.4-19.7,61.4c1,23.4,12.3,44,26.8,61.9c15.5,19.1,36.9,32.4,59.7,41.1
				c45.6,17.3,99,16,145.4,2.4c64.6-18.9,122.3-54.3,184.1-79.9c42.2-17.5,85.6-26.5,130.8-31.7c43.8-5,90.6-8.5,133.9,1.2
				c15.5,3.5,34.1,9.5,42.3,24.3C934.4,2524.8,944.7,2518.8,941,2512z"/>
			<path fill="#333333" d="M912.2,2548c-20.9-31.5-61.2-39.1-96.5-39.4c-45.6-0.3-91.6,10.8-134.2,26.3c-23,8.4-45.6,18.5-66.6,31
				c-15.6,9.3-31.7,20.2-42.9,34.8c-4.7,6,3.7,14.6,8.5,8.5c9.5-12.3,22.5-21.7,35.6-29.9c17.6-11.1,36.6-20.1,55.9-27.9
				c42.3-17,87.9-28.9,133.6-30.6c33.2-1.3,76.1,2.9,96.3,33.3C906.1,2560.4,916.5,2554.4,912.2,2548z"/>
			<path fill="#333333" d="M308.2,2541.6c-22.8-4-41.7-17-44.3-41.3c-2.1-18.9,4.3-39,15.5-54.2c4.6-6.2-5.8-12.2-10.3-6
				c-13.2,17.8-19.9,42-16.7,64c4.1,27.8,26.1,44.4,52.6,49C312.6,2554.5,315.9,2543,308.2,2541.6z"/>
			<path fill="#333333" d="M418.1,2649.3c-48,5.3-98.9,10.1-145.9-3.8c-21.6-6.4-41.3-17.8-56.6-34.4
				c-17.8-19.4-27.1-44.5-33.2-69.7c-9.7-40.6-10.8-93.4,24.2-122.7c5.9-5-2.6-13.4-8.5-8.5c-43.5,36.4-37,102.8-22.6,151.3
				c7.2,24.4,19.8,47.3,38.4,64.9c16.5,15.6,37.3,25.7,59,31.8c46.9,13.1,97.5,8.4,145.2,3.1
				C425.7,2660.4,425.8,2648.4,418.1,2649.3z"/>
		</g>
	</g>
	<g>
		<ellipse fill="#CFD3D2" cx="1289.3" cy="1150" rx="177.5" ry="149.3"/>
		<g>
			<path fill="#333333" d="M1189.4,1082.6v29.6h26.8v14.3h-26.8v55.6c0,12.8,3.6,20,14,20c4.9,0,8.5-0.6,10.9-1.3l0.9,14
				c-3.6,1.5-9.4,2.6-16.6,2.6c-8.7,0-15.8-2.8-20.2-7.9c-5.3-5.5-7.2-14.7-7.2-26.8v-56.2h-16v-14.3h16v-24.7L1189.4,1082.6z"/>
			<path fill="#333333" d="M1237.3,1064.1h18.7v64.3h0.4c3-5.3,7.7-10,13.4-13.2c5.5-3.2,12.1-5.3,19.2-5.3c13.8,0,36,8.5,36,44.1
				v61.3h-18.7v-59.2c0-16.6-6.2-30.7-23.8-30.7c-12.1,0-21.7,8.5-25.1,18.7c-1.1,2.6-1.3,5.3-1.3,8.9v62.2h-18.7V1064.1z"/>
			<path fill="#333333" d="M1365.8,1167.1c0.4,25.3,16.6,35.8,35.3,35.8c13.4,0,21.5-2.3,28.5-5.3l3.2,13.4
				c-6.6,3-17.9,6.4-34.3,6.4c-31.7,0-50.7-20.9-50.7-51.9c0-31.1,18.3-55.6,48.3-55.6c33.6,0,42.6,29.6,42.6,48.5
				c0,3.8-0.4,6.8-0.6,8.7H1365.8z M1420.8,1153.7c0.2-11.9-4.9-30.4-26-30.4c-18.9,0-27.2,17.5-28.7,30.4H1420.8z"/>
		</g>
		<path fill="#333333" d="M1470.6,1065.4c-20.5-29.4-51-47.3-83.7-60.5c-38.7-15.7-82.3-24.4-124.1-20.2c-24.1,2.4-48.7,5-72.2,11
			c-23.1,5.9-46.8,16.6-59.8,37.6c-1.4,2.2-1.1,4.4,0,6.1c-14.6,17.8-25.2,38.9-32,60.9c-10.5,33.8-12.1,72.2,0.4,105.7
			c13.5,36.1,43,63.5,78,78.5c18.4,7.9,37.8,12.3,57.5,15.7c21.2,3.7,42.7,5.9,64.2,6.9c21.7,1,43.6,0.5,65.2-1.9
			c19.3-2.1,39-5.5,57.1-12.7c27.9-11.1,50.6-31.9,64.1-58.7C1511.7,1181.2,1503.8,1113,1470.6,1065.4z M1427.3,1276.2
			c-15.8,8.3-33.8,12.2-51.4,15c-21.1,3.4-42.6,4.2-64,3.9c-21.5-0.3-43.1-2.1-64.4-5.3c-19.7-2.9-39.4-6.8-58.1-13.6
			c-34.9-12.8-65.2-38.5-78.7-73.7c-12.6-32.9-9.9-70.4,0.9-103.4c9.7-29.4,27.5-57.7,53.2-75.5c2.5-1.8,3.1-4.5,2.5-6.9
			c3.7-1.8,7.5-3.4,11.3-4.9c16.4-6.1,34-9.1,51.3-11.3c17.1-2.2,34.5-4.7,51.7-4.9c21-0.1,42,2.9,62.4,8
			c20.8,5.1,41.1,12.5,60.2,22.2c15.3,7.7,29.8,16.8,42,29c20.2,20.3,33,47.2,39,75C1497,1185.1,1479.7,1248.6,1427.3,1276.2z"/>
	</g>
	<g>
		<path fill="#333333" d="M321.7,853.8c-2.6-19.1-21.2-33.7-39.3-36.6c-4-0.6-8-0.8-12-0.5c-0.6,0-1.2,0.2-1.7,0.3
			c-1.5-0.6-3.2-0.5-4.9,0.5c-17.3,10-24.9,30.3-20.4,49.4c4.8,20.5,23.9,30.3,43.8,26.9C307.8,890.2,324.7,875.9,321.7,853.8z
			 M291.3,880.4c-15,4.7-30.5,1.5-35.8-14.7c-4.5-13.9,1-29.4,13.2-37.2c0.5,0.1,1.1,0.1,1.7,0.1c15.9-1.1,30.8,6.5,37.7,21.2
			C315,864.2,304.9,876.2,291.3,880.4z"/>
		<path fill="#333333" d="M1005.6,918.3c-2.6-19.1-21.2-33.7-39.3-36.6c-4-0.6-8-0.8-12-0.5c-0.6,0-1.2,0.2-1.7,0.3
			c-1.5-0.6-3.2-0.5-4.9,0.5c-17.3,10-24.9,30.3-20.4,49.4c4.8,20.5,23.9,30.3,43.8,26.9C991.7,954.7,1008.6,940.4,1005.6,918.3z
			 M975.2,944.9c-15,4.7-30.5,1.5-35.8-14.7c-4.5-13.9,1-29.4,13.2-37.2c0.5,0.1,1.1,0.1,1.7,0.1c15.9-1.1,30.8,6.5,37.7,21.2
			C998.9,928.7,988.8,940.7,975.2,944.9z"/>
		<path fill="#333333" d="M1043.5,1324.9c-2.6-19.1-21.2-33.7-39.3-36.6c-4-0.6-8-0.8-12-0.5c-0.6,0-1.2,0.2-1.7,0.3
			c-1.5-0.6-3.2-0.5-4.9,0.5c-17.3,10-24.9,30.3-20.4,49.4c4.8,20.5,23.9,30.3,43.8,26.9C1029.5,1361.3,1046.5,1347.1,1043.5,1324.9
			z M1013.1,1351.5c-15,4.7-30.5,1.5-35.8-14.7c-4.5-13.9,1-29.4,13.2-37.2c0.5,0.1,1.1,0.1,1.7,0.1c15.9-1.1,30.8,6.5,37.7,21.2
			C1036.7,1335.3,1026.7,1347.3,1013.1,1351.5z"/>
		<path fill="#333333" d="M1630.6,1138c-2.6-19.1-21.2-33.7-39.3-36.6c-4-0.6-8-0.8-12-0.5c-0.6,0-1.2,0.2-1.7,0.3
			c-1.5-0.6-3.2-0.5-4.9,0.5c-17.3,10-24.9,30.3-20.4,49.4c4.8,20.5,23.9,30.3,43.8,26.9C1616.7,1174.4,1633.6,1160.2,1630.6,1138z
			 M1600.2,1164.6c-15,4.7-30.5,1.5-35.8-14.7c-4.5-13.9,1-29.4,13.2-37.2c0.5,0.1,1.1,0.1,1.7,0.1c15.9-1.1,30.8,6.5,37.7,21.2
			C1623.9,1148.5,1613.8,1160.4,1600.2,1164.6z"/>
		<path fill="#333333" d="M2610.6,981.9c-2.6-19.1-21.2-33.7-39.3-36.6c-4-0.6-8-0.8-12-0.5c-0.6,0-1.2,0.2-1.7,0.3
			c-1.5-0.6-3.2-0.5-4.9,0.5c-17.3,10-24.9,30.3-20.4,49.4c4.8,20.5,23.9,30.3,43.8,26.9C2596.6,1018.3,2613.5,1004.1,2610.6,981.9z
			 M2580.2,1008.5c-15,4.7-30.5,1.5-35.8-14.7c-4.5-13.9,1-29.4,13.2-37.2c0.5,0.1,1.1,0.1,1.7,0.1c15.9-1.1,30.8,6.5,37.7,21.2
			C2603.8,992.4,2593.8,1004.3,2580.2,1008.5z"/>
		<path fill="#333333" d="M2504.8,1177c-2.6-19.1-21.2-33.7-39.3-36.6c-4-0.6-8-0.8-12-0.5c-0.6,0-1.2,0.2-1.7,0.3
			c-1.5-0.6-3.2-0.5-4.9,0.5c-17.3,10-24.9,30.3-20.4,49.4c4.8,20.5,23.9,30.3,43.8,26.9C2490.8,1213.4,2507.8,1199.1,2504.8,1177z
			 M2474.4,1203.6c-15,4.7-30.5,1.5-35.8-14.7c-4.5-13.9,1-29.4,13.2-37.2c0.5,0.1,1.1,0.1,1.7,0.1c15.9-1.1,30.8,6.5,37.7,21.2
			C2498,1187.4,2488,1199.3,2474.4,1203.6z"/>
		<path fill="#333333" d="M2586.4,1443.7c-2.6-19.1-21.2-33.7-39.3-36.6c-4-0.6-8-0.8-12-0.5c-0.6,0-1.2,0.2-1.7,0.3
			c-1.5-0.6-3.2-0.5-4.9,0.5c-17.3,10-24.9,30.3-20.4,49.4c4.8,20.5,23.9,30.3,43.8,26.9C2572.5,1480.1,2589.4,1465.8,2586.4,1443.7
			z M2556,1470.3c-15,4.7-30.5,1.5-35.8-14.7c-4.5-13.9,1-29.4,13.2-37.2c0.5,0.1,1.1,0.1,1.7,0.1c15.9-1.1,30.8,6.5,37.7,21.2
			C2579.7,1454.1,2569.6,1466,2556,1470.3z"/>
		<path fill="#333333" d="M2482.2,1049.5c-1-1-2-2-3-3c-2.9-2.9-7.7-2.9-10.6,0c-2.9,2.9-2.9,7.7,0,10.6c1,1,2,2,3,3
			c2.9,2.9,7.7,2.9,10.6,0C2485.1,1057.2,2485.1,1052.4,2482.2,1049.5z"/>
		<path fill="#333333" d="M2635.9,1038.3c-9.7,0-9.7,15,0,15S2645.6,1038.3,2635.9,1038.3z"/>
		<path fill="#333333" d="M2656.9,894.3c-9.7,0-9.7,15,0,15S2666.6,894.3,2656.9,894.3z"/>
		<path fill="#333333" d="M2515.2,1277.5c-2.9-2.9-7.7-2.9-10.6,0c-1,1-2,2-3,3c-2.9,2.9-2.9,7.7,0,10.6c2.9,2.9,7.7,2.9,10.6,0
			c1-1,2-2,3-3C2518.1,1285.2,2518.1,1280.4,2515.2,1277.5z"/>
		<path fill="#333333" d="M2593.9,1188.3c-9.7,0-9.7,15,0,15S2603.6,1188.3,2593.9,1188.3z"/>
		<path fill="#333333" d="M2662.2,1331.5c-1-1-2-2-3-3c-2.9-2.9-7.7-2.9-10.6,0c-2.9,2.9-2.9,7.7,0,10.6c1,1,2,2,3,3
			c2.9,2.9,7.7,2.9,10.6,0C2665.1,1339.2,2665.1,1334.4,2662.2,1331.5z"/>
		<path fill="#333333" d="M2290.9,1455.3c-9.7,0-9.7,15,0,15S2300.6,1455.3,2290.9,1455.3z"/>
		<path fill="#333333" d="M2563.9,1563.3c-9.7,0-9.7,15,0,15S2573.6,1563.3,2563.9,1563.3z"/>
		<path fill="#333333" d="M139.7,951.3h-5.1c-4.1,0-7.5,3.4-7.5,7.5s3.4,7.5,7.5,7.5h5.1c4.1,0,7.5-3.4,7.5-7.5
			S143.8,951.3,139.7,951.3z"/>
		<path fill="#333333" d="M226.7,753.3c-9.7,0-9.7,15,0,15S236.4,753.3,226.7,753.3z"/>
		<path fill="#333333" d="M376.7,978.3c-9.7,0-9.7,15,0,15S386.4,978.3,376.7,978.3z"/>
		<path fill="#333333" d="M515.3,886.2c-1.3-2.3-3.8-4-6.6-4c-4.1,0-7.5,3.4-7.5,7.5c0,1.9,0.6,3.7,1.4,5.4c1.7,3.3,5.5,5.1,9.1,5.1
			c4.1,0.1,7.5-3.5,7.5-7.5C519.2,889.9,517.6,887.5,515.3,886.2z"/>
		<path fill="#333333" d="M726.3,970.8c0.2-4.1-3.5-7.5-7.5-7.5c-3.6,0-6.4,2.5-7.2,5.7c-0.5,0.6-1,1.1-1.5,1.8
			c-1.3,1.7-1.7,3.9-1.8,6c-0.2,4.1,3.5,7.5,7.5,7.5c3.6,0,6.4-2.5,7.2-5.7c0.5-0.6,1-1.1,1.5-1.8
			C725.7,975.1,726.2,972.8,726.3,970.8z"/>
		<path fill="#333333" d="M775.8,861.3c-9.7,0-9.7,15,0,15S785.4,861.3,775.8,861.3z"/>
		<path fill="#333333" d="M134.5,1249.3c-4.6-2.2-9.8-3.2-14.4-0.2c-4.8,3-6.9,8.6-8.7,13.7c-1.3,3.9,1.5,8.2,5.2,9.2
			c4.1,1.1,7.9-1.4,9.2-5.2c0.3-0.8,0.5-1.5,0.8-2.2c0-0.1,0.1-0.2,0.1-0.3c0-0.1,0.1-0.2,0.2-0.4c0.2-0.4,0.4-0.8,0.6-1.2
			c3.5,1.3,7.5,0.5,9.5-3C139.1,1256.3,138.2,1251.1,134.5,1249.3z"/>
		<path fill="#333333" d="M334.7,1359.3c-9.7,0-9.7,15,0,15S344.4,1359.3,334.7,1359.3z"/>
		<path fill="#333333" d="M778.8,1308.3c-9.7,0-9.7,15,0,15S788.4,1308.3,778.8,1308.3z"/>
		<path fill="#333333" d="M979.8,1176.3c-9.7,0-9.7,15,0,15S989.5,1176.3,979.8,1176.3z"/>
		<path fill="#333333" d="M1165.8,891.3c-4.1,0-7.5,3.4-7.5,7.5v3c0,4.1,3.4,7.5,7.5,7.5s7.5-3.4,7.5-7.5v-3
			C1173.3,894.7,1169.9,891.3,1165.8,891.3z"/>
		<path fill="#333333" d="M1372.8,924.3c-9.7,0-9.7,15,0,15S1382.5,924.3,1372.8,924.3z"/>
		<path fill="#333333" d="M1510.1,851.5c-1-1-2-2-3-3c-2.9-2.9-7.7-2.9-10.6,0c-2.9,2.9-2.9,7.7,0,10.6c1,1,2,2,3,3
			c2.9,2.9,7.7,2.9,10.6,0S1513,854.4,1510.1,851.5z"/>
		<path fill="#333333" d="M1561.8,975.3c-9.7,0-9.7,15,0,15S1571.5,975.3,1561.8,975.3z"/>
		<path fill="#333333" d="M1445.3,1369c-2.2-3.7-6.6-4.5-10.3-2.7c-4.8,2.4-10.1,3.6-15,6c-3.7,1.8-4.6,6.9-2.7,10.3
			c2.2,3.7,6.6,4.5,10.3,2.7c4.8-2.4,10.1-3.6,15-6C1446.3,1377.5,1447.2,1372.4,1445.3,1369z"/>
		<path fill="#333333" d="M1564.8,1278.3c-9.7,0-9.7,15,0,15S1574.5,1278.3,1564.8,1278.3z"/>
		<path fill="#333333" d="M1771.9,867.3c-9.7,0-9.7,15,0,15S1781.5,867.3,1771.9,867.3z"/>
		<path fill="#333333" d="M2027.4,922.2c-1.3-2.3-3.7-3.9-6.5-3.9c-4,0-7.6,3.4-7.5,7.5c0.1,3.7,1.8,7.2,5.1,9.1
			c1.6,0.9,3.5,1.4,5.4,1.4c4.1,0,7.5-3.4,7.5-7.5C2031.4,925.9,2029.8,923.5,2027.4,922.2z"/>
		<path fill="#333333" d="M2368.9,879.3c-9.7,0-9.7,15,0,15S2378.6,879.3,2368.9,879.3z"/>
		<path fill="#333333" d="M1573.8,1725.4h-9c-4.1,0-7.5,3.4-7.5,7.5s3.4,7.5,7.5,7.5h9c4.1,0,7.5-3.4,7.5-7.5
			S1577.9,1725.4,1573.8,1725.4z"/>
		<path fill="#333333" d="M1768.9,1589.5c-4.1,0-7.5,3.4-7.5,7.5v3.8c0,4.1,3.4,7.5,7.5,7.5s7.5-3.4,7.5-7.5v-3.8
			C1776.4,1592.9,1772.9,1589.5,1768.9,1589.5z"/>
		<path fill="#333333" d="M1741.9,1473.3c-9.7,0-9.7,15,0,15S1751.5,1473.3,1741.9,1473.3z"/>
		<path fill="#333333" d="M2020.9,1437.3c-9.7,0-9.7,15,0,15S2030.6,1437.3,2020.9,1437.3z"/>
		<path fill="#333333" d="M1753.9,1929.4c-9.7,0-9.7,15,0,15S1763.5,1929.4,1753.9,1929.4z"/>
		<path fill="#333333" d="M1888.9,2025.4c-1.1,0-2.1,0.2-3,0.7c-2.7-1.2-6-0.7-8.3,1.5c-2.8,2.8-2.9,7.8,0,10.6
			c2.5,2.4,6.1,4.8,9.8,4.4c2.4-0.2,4.8-0.9,6.4-2.9c1.7-2.1,2.5-4.1,2.6-6.9C1896.5,2028.8,1892.8,2025.4,1888.9,2025.4z"/>
		<path fill="#333333" d="M2077.9,1926.4c-9.7,0-9.7,15,0,15S2087.6,1926.4,2077.9,1926.4z"/>
		<path fill="#333333" d="M2182.9,2022.4c-9.7,0-9.7,15,0,15S2192.6,2022.4,2182.9,2022.4z"/>
		<path fill="#333333" d="M2389.9,1932.4c-9.7,0-9.7,15,0,15S2399.6,1932.4,2389.9,1932.4z"/>
		<path fill="#333333" d="M2551.9,2004.4c-4.1,0-7.5,3.4-7.5,7.5v3c0,4.1,3.4,7.5,7.5,7.5s7.5-3.4,7.5-7.5v-3
			C2559.4,2007.8,2556,2004.4,2551.9,2004.4z"/>
		<path fill="#333333" d="M201,165.5c-3.1,0-5.7,1.9-6.9,4.6c-2.7,1.1-4.6,3.8-4.6,6.9c0,4.1,3.4,7.5,7.5,7.5c2.1,0,4-0.6,5.9-1.6
			c3.6-1.9,5.5-6,5.6-9.9C208.6,168.9,205,165.5,201,165.5z"/>
		<path fill="#333333" d="M577,57.5c-2.6,0-5.5,0-8,1c-4.7,1.9-7.3,5.4-7.5,10.5c-0.2,4.1,3.5,7.5,7.5,7.5c2.9,0,5.3-1.6,6.6-4
			c0.5,0,1,0,1.4,0c4.1,0,7.5-3.4,7.5-7.5C584.5,60.9,581.1,57.5,577,57.5z"/>
		<path fill="#333333" d="M1169,253.5h-4c-4.1,0-7.5,3.4-7.5,7.5s3.4,7.5,7.5,7.5h4c4.1,0,7.5-3.4,7.5-7.5S1173.1,253.5,1169,253.5z
			"/>
		<path fill="#333333" d="M985,137.5c-9.7,0-9.7,15,0,15S994.7,137.5,985,137.5z"/>
		<path fill="#333333" d="M1381,141.5c-9.7,0-9.7,15,0,15S1390.7,141.5,1381,141.5z"/>
		<path fill="#333333" d="M1577,277.5c-9.7,0-9.7,15,0,15S1586.7,277.5,1577,277.5z"/>
		<path fill="#333333" d="M1762.3,203.7c-1.3-1.3-2.7-2.7-4-4c-2.9-2.9-7.7-2.9-10.6,0c-2.9,2.9-2.9,7.7,0,10.6c1.3,1.3,2.7,2.7,4,4
			c2.9,2.9,7.7,2.9,10.6,0C1765.2,211.4,1765.2,206.6,1762.3,203.7z"/>
		<path fill="#333333" d="M2193,257.5c-9.7,0-9.7,15,0,15S2202.7,257.5,2193,257.5z"/>
		<path fill="#333333" d="M2349,405.5c-9.7,0-9.7,15,0,15S2358.7,405.5,2349,405.5z"/>
		<path fill="#333333" d="M2417,169.5c-9.7,0-9.7,15,0,15S2426.7,169.5,2417,169.5z"/>
		<path fill="#333333" d="M2621,513.5c-9.7,0-9.7,15,0,15S2630.7,513.5,2621,513.5z"/>
		<path fill="#333333" d="M141,1649.5c-9.7,0-9.7,15,0,15S150.7,1649.5,141,1649.5z"/>
		<path fill="#333333" d="M241,1709.5c-9.7,0-9.7,15,0,15S250.7,1709.5,241,1709.5z"/>
		<path fill="#333333" d="M121,1917.5c-9.7,0-9.7,15,0,15S130.7,1917.5,121,1917.5z"/>
		<path fill="#333333" d="M165,2177.5c-9.7,0-9.7,15,0,15S174.7,2177.5,165,2177.5z"/>
		<path fill="#333333" d="M621,2689.5c-9.7,0-9.7,15,0,15S630.7,2689.5,621,2689.5z"/>
		<path fill="#333333" d="M1009,2601.5h-8c-4.1,0-7.5,3.4-7.5,7.5s3.4,7.5,7.5,7.5h8c4.1,0,7.5-3.4,7.5-7.5
			S1013.1,2601.5,1009,2601.5z"/>
		<path fill="#333333" d="M1397,2057.5h-8c-4.1,0-7.5,3.4-7.5,7.5s3.4,7.5,7.5,7.5h8c4.1,0,7.5-3.4,7.5-7.5
			S1401.1,2057.5,1397,2057.5z"/>
		<path fill="#333333" d="M1421,2561.5c-9.7,0-9.7,15,0,15S1430.7,2561.5,1421,2561.5z"/>
		<path fill="#333333" d="M1821,2561.5c-9.7,0-9.7,15,0,15S1830.7,2561.5,1821,2561.5z"/>
		<path fill="#333333" d="M2028.6,2613c0.1-0.1,0.1-0.1,0.2-0.2c0.1-0.1,0.3-0.2,0.4-0.3c4-0.3,7.3-3.4,7.3-7.5c0-4-3.4-7.6-7.5-7.5
			c-8.3,0.3-15.2,7.2-15.5,15.5c-0.1,4.1,3.5,7.5,7.5,7.5c4.1,0,7.2-3.3,7.5-7.2c0,0,0,0,0-0.1
			C2028.5,2613.1,2028.6,2613.1,2028.6,2613z"/>
		<path fill="#333333" d="M2301,2549.5c-9.7,0-9.7,15,0,15S2310.7,2549.5,2301,2549.5z"/>
		<path fill="#333333" d="M2521,2569.5c-9.7,0-9.7,15,0,15S2530.7,2569.5,2521,2569.5z"/>
		<path fill="#333333" d="M2613,2289.5c-9.7,0-9.7,15,0,15S2622.7,2289.5,2613,2289.5z"/>
		<path fill="#333333" d="M1217,2577.5c-9.7,0-9.7,15,0,15S1226.7,2577.5,1217,2577.5z"/>
		<path fill="#333333" d="M1621,2673.5c-9.7,0-9.7,15,0,15S1630.7,2673.5,1621,2673.5z"/>
		<path fill="#333333" d="M989,2081.5c-9.7,0-9.7,15,0,15S998.7,2081.5,989,2081.5z"/>
		<path fill="#333333" d="M1013,2293.5c-9.7,0-9.7,15,0,15S1022.7,2293.5,1013,2293.5z"/>
		<path fill="#333333" d="M658.3,2043.7c-1.3-1.3-2.7-2.7-4-4c-2.9-2.9-7.7-2.9-10.6,0c-2.9,2.9-2.9,7.7,0,10.6c1.3,1.3,2.7,2.7,4,4
			c2.9,2.9,7.7,2.9,10.6,0C661.2,2051.4,661.2,2046.6,658.3,2043.7z"/>
		<path fill="#333333" d="M206.3,2303.7c-2.9-2.9-7.7-2.9-10.6,0c-1.3,1.3-2.7,2.7-4,4c-2.9,2.9-2.9,7.7,0,10.6
			c2.9,2.9,7.7,2.9,10.6,0c1.3-1.3,2.7-2.7,4-4C209.2,2311.4,209.2,2306.6,206.3,2303.7z"/>
		<path fill="#333333" d="M93,2377.5c-4.1,0-7.5,3.4-7.5,7.5v4c0,4.1,3.4,7.5,7.5,7.5s7.5-3.4,7.5-7.5v-4
			C100.5,2380.9,97.1,2377.5,93,2377.5z"/>
	</g>
</g>
</svg>
