<?xml version="1.0" encoding="UTF-8"?>
<!-- Generator: visioncortex VTracer 1.0.0-alpha.1 -->
<svg version="1.1" xmlns="http://www.w3.org/2000/svg" width="48" height="48">
<path d="M0,0C16,0,32,0,48,0C48,16,48,32,48,48C32,48,16,48,0,48C0,32,0,16,0,0Z" fill="#F0F0F0"/>
<path d="M35.31,12.06C39.1,16.2,41.16,20.44,40.91,26.15C39.91,31.12,37.77,34.55,34,38C29.69,40.33,25.67,41.47,20.81,40.5C16.02,38.91,12.35,36.5,9.89,31.95C8.06,27.32,7.57,23.62,9.15,18.85C11.43,13.88,14.28,10.99,19.31,9C25.64,7.23,29.86,8.66,35.31,12.06Z" fill="#C83C3C"/>
</svg>
