<?xml version="1.0" encoding="utf-8"?>
<!-- Generator: Adobe Illustrator 19.2.1, SVG Export Plug-In . SVG Version: 6.00 Build 0)  -->
<svg version="1.1" id="Layer_1" xmlns="http://www.w3.org/2000/svg" xmlns:xlink="http://www.w3.org/1999/xlink" x="0px" y="0px"
	 viewBox="0 0 1214 254" style="enable-background:new 0 0 1214 254;" xml:space="preserve">
<style type="text/css">
	.st0{fill:#CC972E;}
	.st1{fill:#00275D;}
</style>
<polygon class="st0" points="173,117.4 173,136.7 189.7,127.1 "/>
<polygon class="st0" points="73,136.7 73,117.4 56.3,127.1 "/>
<polygon class="st0" points="139.3,79 156,88.6 156,69.3 "/>
<polygon class="st0" points="106.7,175.2 90,165.6 90,184.8 "/>
<polygon class="st0" points="90,88.6 106.7,79 90,69.3 "/>
<polygon class="st0" points="156,165.6 139.3,175.2 156,184.8 "/>
<polygon class="st1" points="23.7,184.7 23.7,184.8 23.7,184.8 "/>
<polygon class="st1" points="41.5,77.9 56,69.3 56,86.6 73,96.2 73,40.4 24.8,68.3 "/>
<polygon class="st1" points="55.2,89.5 40,98.2 40,80.8 23,71.2 23,127.1 71.6,99.1 "/>
<polygon class="st1" points="40,173.2 40,155.9 55.1,164.6 71.5,154.9 23,127.1 23,182.8 "/>
<polygon class="st1" points="191.6,164.6 206,155.9 206,173.2 223,182.8 223,127.1 174.8,154.9 "/>
<polygon class="st1" points="206,98.2 191.5,89.5 174.7,99.1 223,127.1 223,71.2 206,80.8 "/>
<polygon class="st1" points="223.7,184.7 223.7,184.8 223.7,184.8 "/>
<polygon class="st1" points="23.7,184.9 23.8,184.9 23.7,184.8 "/>
<polygon class="st1" points="73,157.8 56,167.4 56,184.9 41.4,176.1 24.6,185.8 73,213.7 73,213.6 121,241.5 121,222.3 106,213.6 
	121,204.9 121,185.7 73,213.6 "/>
<polygon class="st1" points="221.8,185.8 205.1,176.1 190,184.9 190,167.4 173,157.8 173,213.6 125,185.7 125,204.9 140,213.6 
	125,222.3 125,241.5 173,213.6 173,213.7 "/>
<polygon class="st1" points="223.6,184.9 223.7,184.9 223.6,184.8 "/>
<polygon class="st1" points="173,96.2 190,86.6 190,69.3 205.2,77.9 221.6,68.3 173,40.4 "/>
<polygon class="st1" points="125,12.5 125,31.7 140,40.4 125,49.1 125,68.3 173.3,40.4 "/>
<polygon class="st1" points="121,49.1 106,40.4 121,31.7 121,12.5 72.7,40.4 121,68.3 "/>
<polygon class="st1" points="121,70.3 106,79 106,98.2 89.8,88.6 74.6,97.2 121,124.1 "/>
<polygon class="st1" points="125,70.3 125,124.1 171.8,97.2 156.8,88.6 140,98.2 140,79 "/>
<polygon class="st1" points="73,100.1 73,117.4 89.7,127.1 73,136.7 73,153.9 119.7,127 "/>
<polygon class="st1" points="173,100.1 126.3,127 173,153.9 173,136.7 156.3,127.1 173,117.4 "/>
<polygon class="st1" points="125,183.8 140,175.2 140,155.9 156.8,165.6 171.8,156.9 125,129.9 "/>
<polygon class="st1" points="121,183.8 121,129.9 74.8,156.9 89.6,165.6 106,155.9 106,175.2 "/>
<path class="st0" d="M378.1,96.2l-38.8,72.4h-0.9l-40.6-72.4H320l19.4,34.5l17.7-34.5L378.1,96.2L378.1,96.2z"/>
<path class="st1" d="M413.6,77.1c0,13.7-20.9,13.7-20.9,0C392.7,63.3,413.6,63.3,413.6,77.1z M394.4,96.9v71.7H412V96.9H394.4z"/>
<path class="st1" d="M484.6,115.7c-5.1-4.8-10.8-6.3-17.6-6.3c-8.4,0-13.1,2.6-13.1,7.1c0,4.7,4.2,7.2,13.4,7.8
	c13.5,0.9,30.5,3.9,30.5,22.8c0,12.6-10.2,23.4-30.6,23.4c-11.3,0-22.5-2-33-12.8l8.7-12.6c5.1,5.7,16.7,9.8,24.6,9.9
	c6.6,0.2,12.9-3.3,12.9-8.6c0-5-4.1-6.9-14.1-7.5c-13.5-1.1-29.4-5.9-29.4-22.1c0-16.5,17.1-22.2,30-22.2c11.1,0,19.5,2.1,27.8,9.5
	L484.6,115.7z"/>
<path class="st1" d="M536.9,77.1c0,13.7-20.9,13.7-20.9,0C516,63.3,536.9,63.3,536.9,77.1z M517.7,96.9v71.7h17.6V96.9H517.7z"/>
<path class="st1" d="M628.1,133c0,20.6-14,37.1-37.3,37.1s-37.1-16.7-37.1-37.1s14.1-37.3,37-37.3C613.5,95.9,628.1,112.7,628.1,133
	z M571.5,133c0,10.8,6.5,21,19.4,21s19.4-10.1,19.4-21c0-10.7-7.5-21.2-19.4-21.2C578.2,111.9,571.5,122.3,571.5,133z"/>
<path class="st1" d="M698.2,168.4v-37.3c0-10.8-5.9-19.1-17.3-19.1c-10.8,0-18.2,9.2-18.2,20v36.5h-17.6V97.1H661l1.2,9.8
	c7.2-7.1,14.4-10.7,23.4-10.7c16.8,0,30.2,12.6,30.2,35v37.4h-17.6L698.2,168.4L698.2,168.4z"/>
<path class="st0" d="M799.9,159.4c-8.3,8.1-17,11.3-27.5,11.3c-20.7,0-37.9-12.5-37.9-37.7c0-25.4,17.3-37.7,37.9-37.7
	c10.1,0,17.9,2.9,25.7,10.5L787,117.5c-4.2-3.8-9.5-5.7-14.3-5.7c-11.9,0-20.6,8.7-20.6,21.2c0,13.7,9.3,20.9,20.3,20.9
	c5.7,0,11.3-1.7,15.6-5.9L799.9,159.4z"/>
<path class="st1" d="M884.2,133.4c0,20.6-14,37.1-37.3,37.1c-23.1,0-37.1-16.7-37.1-37.1s14.1-37.3,37-37.3
	C869.6,96.3,884.2,113.1,884.2,133.4z M827.6,133.4c0,10.8,6.5,21,19.4,21s19.4-10.1,19.4-21c0-10.7-7.5-21.2-19.4-21.2
	C834.3,112.4,827.6,122.8,827.6,133.4z"/>
<path class="st1" d="M917.1,97.2l1.4,8.3c5.6-8.9,12.9-10.1,20.1-10.1c7.4,0,14.4,2.9,18.3,6.8l-8,15.3c-3.6-3-6.9-4.7-12.8-4.7
	c-9.3,0-17.7,5-17.7,18v37.6h-17.6V97.1L917.1,97.2L917.1,97.2z"/>
<path class="st1" d="M997.2,69.6v27.8h19.7v15.2H997v30.8c0,6.8,3.8,10.1,9.3,10.1c2.7,0,5.9-0.9,8.6-2.1l5,15
	c-5.1,2-9.3,2.9-14.6,3c-15.5,0.6-25.5-8.3-25.5-26v-30.8h-13.4V97.4h13.4V79L997.2,69.6z"/>
<path class="st1" d="M1049.4,139.3c1.2,8.9,8.9,15.2,21.3,15.2c6.5,0,15-2.4,19.1-6.6l11.3,11.1c-7.5,7.8-19.8,11.6-30.6,11.6
	c-24.6,0-39.2-15.2-39.2-38c0-21.6,14.7-37.3,37.9-37.3c23.9,0,38.8,14.7,36.1,44.2h-55.7L1049.4,139.3L1049.4,139.3z M1088.2,124.7
	c-1.2-9.3-8.4-13.8-18.5-13.8c-9.6,0-17.4,4.7-20,13.8H1088.2z"/>
<path class="st1" d="M1163.6,97.2h21.2v0.6l-23.4,34.5l24.9,35.8v0.5h-21.2l-15.5-23.9l-15.5,23.9H1113v-0.5l24.9-35.8l-23.4-34.5
	v-0.6h21.2l14,24.2L1163.6,97.2z"/>
<path class="st0" d="M378.1,96.5l-38.8,72.4h-0.9l-40.6-72.4H320l19.4,34.5l17.7-34.5H378.1L378.1,96.5z"/>
</svg>
